#N canvas 403 136 1024 542 16;
#X obj 319 176 line;
#X floatatom 321 225 15 0 0 0 - - -, f 15;
#X obj 569 362 dac~;
#X obj 564 295 *~ 0.4;
#X obj 640 257 tgl 15 0 empty empty empty 17 7 0 10 -262144 -1 -1 0
1;
#X obj 564 220 osc~;
#X msg 559 89 30;
#X msg 588 92 60;
#X msg 663 98 1030;
#X msg 736 102 1060;
#X floatatom 951 107 5 0 0 0 - - -, f 5;
#X obj 951 139 ftom;
#X floatatom 954 212 5 0 0 0 - - -, f 5;
#X floatatom 1116 115 5 0 0 0 - - -, f 5;
#X floatatom 1116 184 5 0 0 0 - - -, f 5;
#X obj 1116 147 mtof;
#X text 1009 62 midi;
#X floatatom -70 146 5 0 0 0 - - -, f 5;
#X obj -65 274 *~ 0.4;
#X obj -62 346 dac~;
#X obj 45 246 snapshot~;
#X floatatom 118 295 5 0 0 0 - - -, f 5;
#X text -31 83 conversion a/d;
#X obj 557 410 midiin;
#X obj 25 187 bng 15 250 50 0 empty empty empty 17 7 0 10 -262144 -1
-1;
#X text 321 72 Freq & pitch;
#X obj 54 353 snapshot~  ;
#X floatatom 79 389 5 0 0 0 - - -, f 5;
#X obj -66 209 phasor~;
#X obj 59 116 tgl 15 0 empty empty empty 17 7 0 10 -262144 -1 -1 0
1;
#X obj 69 164 metro 50;
#X obj 322 313 *~ 0.4;
#X obj 325 385 dac~;
#X obj 775 337 *~ 0.4;
#X obj 778 409 dac~;
#X obj 774 282 osc~;
#X msg 697 208 100;
#X msg 747 204 200;
#X msg 810 216 1000;
#X msg 888 253 1100;
#X obj 955 180 i;
#N canvas 0 22 450 278 (subpatch) 0;
#X array array1 16 float 3;
#A 0 54.6427 60.7143 65.7141 68.9286 68.9287 67.5001 66.7858 68.9287
68.2144 67.1429 66.4286 56.4286 61.7858 62.8572 68.9287 0;
#X coords 0 40 16 90 200 140 1 0 0;
#X restore 915 362 graph;
#X obj 788 178 mtof;
#X floatatom 863 191 5 0 0 0 - - -, f 5;
#X obj 791 141 tabread array1;
#X obj 873 -11 f;
#X floatatom 900 -50 5 0 0 0 - - -, f 5;
#X obj 858 -55 bng 15 250 50 0 empty empty empty 17 7 0 10 -262144
-1 -1;
#X obj 869 35 + 1;
#X obj 704 -34 tgl 15 0 empty empty empty 17 7 0 10 -262144 -1 -1 0
1;
#X obj 867 310 tgl 15 0 empty empty empty 17 7 0 10 -262144 -1 -1 0
1;
#X obj 874 71 mod 4;
#X obj 719 -1 metro 300;
#X floatatom 379 31 5 0 0 0 - - -, f 5;
#X obj 383 0 line 0 4;
#X msg 326 -38 2 1000;
#X msg 318 125 20 \, 20000 30000;
#X obj 321 258 osc~;
#X connect 0 0 1 0;
#X connect 1 0 57 0;
#X connect 3 0 2 0;
#X connect 3 0 2 1;
#X connect 4 0 3 1;
#X connect 5 0 3 0;
#X connect 6 0 5 0;
#X connect 7 0 5 0;
#X connect 8 0 5 0;
#X connect 9 0 5 0;
#X connect 10 0 11 0;
#X connect 11 0 40 0;
#X connect 13 0 15 0;
#X connect 15 0 14 0;
#X connect 17 0 28 0;
#X connect 18 0 19 0;
#X connect 18 0 19 1;
#X connect 18 0 26 0;
#X connect 20 0 21 0;
#X connect 24 0 20 0;
#X connect 24 0 26 0;
#X connect 26 0 27 0;
#X connect 28 0 18 0;
#X connect 28 0 20 0;
#X connect 29 0 30 0;
#X connect 29 0 18 1;
#X connect 30 0 24 0;
#X connect 31 0 32 0;
#X connect 31 0 32 1;
#X connect 33 0 34 0;
#X connect 33 0 34 1;
#X connect 35 0 33 0;
#X connect 36 0 35 0;
#X connect 37 0 35 0;
#X connect 38 0 35 0;
#X connect 39 0 35 0;
#X connect 40 0 12 0;
#X connect 42 0 35 0;
#X connect 44 0 42 0;
#X connect 44 0 43 0;
#X connect 45 0 48 0;
#X connect 46 0 45 1;
#X connect 47 0 45 0;
#X connect 48 0 45 1;
#X connect 48 0 51 0;
#X connect 49 0 52 0;
#X connect 50 0 33 1;
#X connect 51 0 44 0;
#X connect 52 0 45 0;
#X connect 54 0 53 0;
#X connect 55 0 54 0;
#X connect 56 0 0 0;
#X connect 57 0 31 0;
