#N canvas 302 23 629 438 16;
#X obj 42 122 osc~;
#X floatatom 38 59 5 0 0 0 - - -, f 5;
#X obj 43 187 *~ 0.4;
#X obj 46 259 dac~;
#X obj 228 214 snapshot~;
#X floatatom 231 265 5 0 0 0 - - -, f 5;
#X obj 226 146 metro 50;
#X obj 222 104 tgl 15 0 empty empty empty 17 7 0 10 -262144 -1 -1 0
1;
#X obj 125 48 hsl 128 15 0 1 0 0 empty empty empty -2 -8 0 10 -262144
-1 -1 10400 1;
#X floatatom 119 81 5 0 0 0 - - -, f 5;
#X obj 119 136 line;
#X msg 119 107 \$1 60;
#X obj 118 241 env~ 128;
#X floatatom 122 283 5 0 0 0 - - -, f 5;
#X obj 126 364 vu 15 120 empty empty -1 -8 0 10 -66577 -1 1 0;
#X floatatom 204 347 5 0 0 0 - - -, f 5;
#X obj 120 313 - 100;
#X text 64 18 Volumen;
#X text 294 93 comment;
#X connect 0 0 2 0;
#X connect 1 0 0 0;
#X connect 2 0 3 0;
#X connect 2 0 3 1;
#X connect 2 0 4 0;
#X connect 2 0 12 0;
#X connect 4 0 5 0;
#X connect 6 0 4 0;
#X connect 7 0 6 0;
#X connect 8 0 9 0;
#X connect 9 0 11 0;
#X connect 10 0 2 1;
#X connect 11 0 10 0;
#X connect 12 0 13 0;
#X connect 13 0 16 0;
#X connect 16 0 14 0;
#X connect 16 0 15 0;
