#N canvas 173 132 1000 578 16;
#X floatatom 177 -129 5 0 0 0 - - -, f 5;
#X obj 477 96 hsl 60 15 0 1 0 0 empty empty empty -2 -8 0 10 -262144
-1 -1 0 1;
#X floatatom 477 116 5 0 0 0 - - -, f 5;
#X obj 477 171 line;
#X msg 477 142 \$1 60;
#X obj 392 -87 * 3;
#N canvas 0 22 450 278 (subpatch) 0;
#X array forma1 64 float 1;
#A 0 0 0 0 0 0 0 0 0 0 0 0 0 0 0 0 0 0 0 0 0 0 0 0 0 0 0 0 0 0 0 0
0 0 0 0 0 0 0 0 0 0 0 0 0 0 0 0 0 0 0 0 0 0 0 0 0 0 0 0 0 0 0 0 0;
#X coords 0 1 63 -1 200 140 1 0 0;
#X restore 746 238 graph;
#X obj 569 340 tabsend~ forma1;
#X obj 257 -92 * 2;
#N canvas 0 22 450 300 osc 0;
#X obj 112 131 *~ 0.4;
#X floatatom 199 37 5 0 0 0 - - -, f 5;
#X obj 199 92 line;
#X obj 111 172 outlet~;
#X obj 111 66 osc~;
#X obj 107 17 inlet;
#X obj 201 6 inlet;
#X msg 199 63 \$1 60;
#X connect 0 0 3 0;
#X connect 1 0 7 0;
#X connect 2 0 0 1;
#X connect 4 0 0 0;
#X connect 5 0 4 0;
#X connect 6 0 1 0;
#X connect 7 0 2 0;
#X restore 254 37 pd osc;
#N canvas 0 22 450 300 osc 0;
#X obj 112 131 *~ 0.4;
#X floatatom 199 37 5 0 0 0 - - -, f 5;
#X obj 199 92 line;
#X obj 111 172 outlet~;
#X obj 111 66 osc~;
#X obj 107 17 inlet;
#X obj 201 6 inlet;
#X msg 199 63 \$1 60;
#X connect 0 0 3 0;
#X connect 1 0 7 0;
#X connect 2 0 0 1;
#X connect 4 0 0 0;
#X connect 5 0 4 0;
#X connect 6 0 1 0;
#X connect 7 0 2 0;
#X restore 572 50 pd osc;
#X text 7 -346 fundamental;
#N canvas 0 22 450 300 osc 0;
#X obj 112 131 *~ 0.4;
#X floatatom 199 37 5 0 0 0 - - -, f 5;
#X obj 199 92 line;
#X obj 111 172 outlet~;
#X obj 107 17 inlet;
#X obj 201 6 inlet;
#X msg 199 63 \$1 60;
#X obj 111 66 osc~;
#X connect 0 0 3 0;
#X connect 1 0 6 0;
#X connect 2 0 0 1;
#X connect 4 0 7 0;
#X connect 5 0 1 0;
#X connect 6 0 2 0;
#X connect 7 0 0 0;
#X restore 393 32 pd osc;
#N canvas 0 22 450 300 osc 0;
#X obj 112 131 *~ 0.4;
#X floatatom 199 37 5 0 0 0 - - -, f 5;
#X obj 199 92 line;
#X obj 111 172 outlet~;
#X obj 111 66 osc~;
#X obj 107 17 inlet;
#X obj 201 6 inlet;
#X msg 199 63 \$1 60;
#X connect 0 0 3 0;
#X connect 1 0 7 0;
#X connect 2 0 0 1;
#X connect 4 0 0 0;
#X connect 5 0 4 0;
#X connect 6 0 1 0;
#X connect 7 0 2 0;
#X restore 761 43 pd osc;
#N canvas 0 22 450 300 osc 0;
#X obj 112 131 *~ 0.4;
#X floatatom 199 37 5 0 0 0 - - -, f 5;
#X obj 199 92 line;
#X obj 111 172 outlet~;
#X obj 111 66 osc~;
#X obj 107 17 inlet;
#X obj 201 6 inlet;
#X msg 199 63 \$1 40;
#X connect 0 0 3 0;
#X connect 1 0 7 0;
#X connect 2 0 0 1;
#X connect 4 0 0 0;
#X connect 5 0 4 0;
#X connect 6 0 1 0;
#X connect 7 0 2 0;
#X restore 919 42 pd osc;
#X obj 572 -85 * 4;
#X obj 731 -73 * 5;
#X obj 414 11 hsl 60 15 0 1 0 0 empty empty empty -2 -8 0 10 -262144
-1 -1 0 1;
#X obj 143 -38 random 100;
#X obj 143 -10 / 100;
#X floatatom 143 19 5 0 0 0 - - -, f 5;
#X obj 283 -55 random 100;
#X obj 283 -27 / 100;
#X floatatom 283 2 5 0 0 0 - - -, f 5;
#X obj 440 -82 random 100;
#X obj 422 -51 / 100;
#X floatatom 422 -22 5 0 0 0 - - -, f 5;
#X obj 620 24 hsl 60 15 0 1 0 0 empty empty empty -2 -8 0 10 -262144
-1 -1 0 1;
#X obj 628 -38 / 100;
#X floatatom 628 -9 5 0 0 0 - - -, f 5;
#X obj 632 -143 bng 15 250 50 0 empty empty empty 17 7 0 10 -262144
-1 -1;
#X obj 618 -66 random 100;
#N canvas 0 22 450 300 osc 0;
#X obj 112 131 *~ 0.4;
#X floatatom 199 37 5 0 0 0 - - -, f 5;
#X obj 199 92 line;
#X obj 111 172 outlet~;
#X obj 107 17 inlet;
#X obj 201 6 inlet;
#X msg 199 63 \$1 60;
#X obj 111 66 osc~;
#X connect 0 0 3 0;
#X connect 1 0 6 0;
#X connect 2 0 0 1;
#X connect 4 0 7 0;
#X connect 5 0 1 0;
#X connect 6 0 2 0;
#X connect 7 0 0 0;
#X restore 84 48 pd osc;
#X obj 786 16 hsl 60 15 0 1 0 0 empty empty empty -2 -8 0 10 -262144
-1 -1 0 1;
#X obj 794 -46 / 100;
#X floatatom 794 -17 5 0 0 0 - - -, f 5;
#X obj 793 -73 random 100;
#X obj 377 220 *~;
#X obj 968 23 hsl 60 15 0 1 0 0 empty empty empty -2 -8 0 10 -262144
-1 -1 0 1;
#X obj 976 -39 / 100;
#X floatatom 976 -10 5 0 0 0 - - -, f 5;
#X obj 975 -66 random 100;
#X obj 928 -58 * 12;
#X msg 63 241 start;
#X msg 102 275 stop;
#X msg -7 209 open test666.wav;
#X obj 100 312 writesf~ 2;
#X obj 149 -469 metro;
#X obj 128 -493 tgl 15 0 empty empty empty 17 7 0 10 -262144 -1 -1
0 1;
#X msg 152 -580 60000;
#X obj 200 -547 /;
#X msg 191 -226 155.56;
#X msg 82 -230 130.81;
#X msg 286 -228 196;
#X msg 350 -227 261.63;
#X obj 140 -276 select 0 2 1 3;
#X obj 174 -401 f;
#X obj 189 -363 + 1;
#X obj 256 -321 mod 4;
#X floatatom 250 -579 5 0 0 0 - - -, f 5;
#X obj 415 -397 bng 15 250 50 0 empty empty empty 17 7 0 10 -262144
-1 -1;
#X obj 417 -332 + 1;
#X obj 420 -297 / 2;
#X floatatom 501 -421 5 0 0 0 - - -, f 5;
#X obj 415 -370 random 3;
#X obj 553 267 freeverb~;
#X obj 374 326 +~;
#X obj 367 410 dac~;
#X obj 371 368 ggee/moog~;
#X floatatom 431 335 5 0 0 0 - - -, f 5;
#X floatatom 492 341 5 0 0 0 - - -, f 5;
#X obj 663 162 vsl 15 128 20 20000 1 0 empty empty empty 0 -9 0 10
-260097 -1 -1 0 1;
#X obj 222 -600 bng 15 250 50 0 empty empty empty 17 7 0 10 -262144
-1 -1;
#X obj 232 -667 loadbang;
#X msg 247 -633 480;
#X obj 177 -166 *;
#X connect 0 0 5 0;
#X connect 0 0 8 0;
#X connect 0 0 32 0;
#X connect 0 0 15 0;
#X connect 0 0 16 0;
#X connect 0 0 42 0;
#X connect 1 0 2 0;
#X connect 2 0 4 0;
#X connect 3 0 37 1;
#X connect 4 0 3 0;
#X connect 5 0 12 0;
#X connect 8 0 9 0;
#X connect 9 0 37 0;
#X connect 10 0 37 0;
#X connect 12 0 37 0;
#X connect 13 0 37 0;
#X connect 14 0 37 0;
#X connect 15 0 10 0;
#X connect 16 0 13 0;
#X connect 17 0 12 1;
#X connect 18 0 19 0;
#X connect 19 0 20 0;
#X connect 20 0 32 1;
#X connect 21 0 22 0;
#X connect 22 0 23 0;
#X connect 23 0 9 1;
#X connect 24 0 25 0;
#X connect 25 0 26 0;
#X connect 26 0 17 0;
#X connect 27 0 10 1;
#X connect 28 0 29 0;
#X connect 29 0 27 0;
#X connect 30 0 31 0;
#X connect 30 0 21 0;
#X connect 30 0 18 0;
#X connect 30 0 36 0;
#X connect 30 0 41 0;
#X connect 30 0 24 0;
#X connect 31 0 28 0;
#X connect 32 0 37 0;
#X connect 33 0 13 1;
#X connect 34 0 35 0;
#X connect 35 0 33 0;
#X connect 36 0 34 0;
#X connect 37 0 7 0;
#X connect 37 0 46 0;
#X connect 37 0 46 1;
#X connect 37 0 65 0;
#X connect 37 0 65 1;
#X connect 37 0 66 0;
#X connect 38 0 14 1;
#X connect 39 0 40 0;
#X connect 40 0 38 0;
#X connect 41 0 39 0;
#X connect 42 0 14 0;
#X connect 43 0 46 0;
#X connect 44 0 46 0;
#X connect 45 0 46 0;
#X connect 47 0 56 0;
#X connect 47 0 60 0;
#X connect 48 0 47 0;
#X connect 49 0 50 0;
#X connect 50 0 47 1;
#X connect 51 0 30 0;
#X connect 51 0 75 0;
#X connect 52 0 30 0;
#X connect 52 0 75 0;
#X connect 53 0 30 0;
#X connect 53 0 75 0;
#X connect 54 0 30 0;
#X connect 54 0 75 0;
#X connect 55 0 52 0;
#X connect 55 1 51 0;
#X connect 55 2 53 0;
#X connect 55 3 54 0;
#X connect 56 0 57 0;
#X connect 57 0 58 0;
#X connect 57 0 56 1;
#X connect 58 0 55 0;
#X connect 59 0 50 1;
#X connect 59 0 72 0;
#X connect 60 0 64 0;
#X connect 61 0 62 0;
#X connect 62 0 75 1;
#X connect 63 0 64 1;
#X connect 64 0 61 0;
#X connect 65 0 66 1;
#X connect 66 0 68 0;
#X connect 68 0 67 0;
#X connect 68 0 67 1;
#X connect 69 0 68 1;
#X connect 70 0 68 2;
#X connect 71 0 69 0;
#X connect 72 0 49 0;
#X connect 73 0 74 0;
#X connect 74 0 59 0;
#X connect 75 0 0 0;
