#N canvas 477 42 751 456 16;
#X obj -15 128 * 1;
#X floatatom -15 153 5 0 0 0 - - -, f 5;
#X obj -15 174 osc~;
#X obj -15 277 *~;
#X floatatom 33 185 5 0 0 0 - - -, f 5;
#X floatatom 123 153 5 0 0 0 - - -, f 5;
#X obj 123 174 osc~;
#X obj 123 277 *~;
#X floatatom 196 161 5 0 0 0 - - -, f 5;
#X floatatom 76 67 5 0 0 0 - - -, f 5;
#X obj 33 235 line~;
#X msg 33 210 \$1 3000;
#X obj 171 239 line~;
#X msg 171 214 \$1 3000;
#X text 48 37 Fundamental;
#X obj 123 128 * 2.5;
#X obj 45 373 *~;
#X obj 47 404 dac~;
#X floatatom 118 346 5 0 0 0 - - -, f 5;
#N canvas 0 22 450 278 (subpatch) 0;
#X array Graph1 50 float 1;
#A 0 0 0 0 0 0 0 0 0 0 0 0 0 0 0 0 0 0 0 0 0 0 0 0 0 0 0 0 0 0 0 0
0 0 0 0 0 0 0 0 0 0 0 0 0 0 0 0 0 0 0;
#X coords 0 1 49 -1 200 140 1 0 0;
#X restore 276 58 graph;
#X obj 263 368 tabsend~ Graph1;
#X obj 282 321 tabwrite~ Graph1;
#X obj 300 224 bng 15 250 50 0 empty empty empty 17 7 0 10 -262144
-1 -1;
#X obj 319 249 tgl 15 0 empty empty empty 17 7 0 10 -262144 -1 -1 1
1;
#X obj 320 276 metro 10;
#X connect 0 0 1 0;
#X connect 1 0 2 0;
#X connect 2 0 3 0;
#X connect 3 0 16 0;
#X connect 3 0 21 0;
#X connect 4 0 11 0;
#X connect 5 0 6 0;
#X connect 6 0 7 0;
#X connect 7 0 16 0;
#X connect 8 0 13 0;
#X connect 9 0 0 0;
#X connect 9 0 15 0;
#X connect 10 0 3 1;
#X connect 11 0 10 0;
#X connect 12 0 7 1;
#X connect 13 0 12 0;
#X connect 15 0 5 0;
#X connect 16 0 17 0;
#X connect 16 0 17 1;
#X connect 18 0 16 1;
#X connect 22 0 21 0;
#X connect 23 0 24 0;
#X connect 24 0 21 0;
