#N canvas 44 47 1000 578 16;
#X floatatom 177 -129 5 0 0 0 - - -, f 5;
#X obj 477 96 hsl 60 15 0 1 0 0 empty empty empty -2 -8 0 10 -262144
-1 -1 2100 1;
#X floatatom 477 116 5 0 0 0 - - -, f 5;
#X obj 477 171 line;
#X msg 477 142 \$1 60;
#X obj 392 -87 * 3;
#N canvas 0 22 450 278 (subpatch) 0;
#X array forma1 64 float 1;
#A 0 0.00204781 0.0275988 0.048881 0.0655942 0.077533 0.0845548 0.086629
0.0838033 0.0762154 0.0640901 0.0477275 0.0275024 0.00386794 -0.0226727
-0.0515535 -0.0821786 -0.113916 -0.146119 -0.178121 -0.209272 -0.238931
-0.266487 -0.291368 -0.313047 -0.331054 -0.34499 -0.354528 -0.359427
-0.359513 -0.354708 -0.345023 -0.330556 -0.311497 -0.288113 -0.260751
-0.229829 -0.195829 -0.159305 -0.120844 -0.0810629 -0.0406271 -0.000195435
0.0395636 0.0779784 0.114419 0.14827 0.178973 0.206009 0.228913 0.247324
0.260926 0.269497 0.272907 0.27109 0.26409 0.252035 0.235143 0.21371
0.188092 0.158751 0.126185 0.0909519 0.0536668 0.0149569;
#X coords 0 1 63 -1 200 140 1 0 0;
#X restore 746 238 graph;
#X obj 578 212 tabsend~ forma1;
#X obj 257 -92 * 2;
#N canvas 0 22 450 300 osc 0;
#X obj 112 131 *~ 0.4;
#X floatatom 199 37 5 0 0 0 - - -, f 5;
#X obj 199 92 line;
#X obj 111 172 outlet~;
#X obj 111 66 osc~;
#X obj 107 17 inlet;
#X obj 201 6 inlet;
#X msg 199 63 \$1 60;
#X connect 0 0 3 0;
#X connect 1 0 7 0;
#X connect 2 0 0 1;
#X connect 4 0 0 0;
#X connect 5 0 4 0;
#X connect 6 0 1 0;
#X connect 7 0 2 0;
#X restore 254 37 pd osc;
#N canvas 0 22 450 300 osc 0;
#X obj 112 131 *~ 0.4;
#X floatatom 199 37 5 0 0 0 - - -, f 5;
#X obj 199 92 line;
#X obj 111 172 outlet~;
#X obj 111 66 osc~;
#X obj 107 17 inlet;
#X obj 201 6 inlet;
#X msg 199 63 \$1 60;
#X connect 0 0 3 0;
#X connect 1 0 7 0;
#X connect 2 0 0 1;
#X connect 4 0 0 0;
#X connect 5 0 4 0;
#X connect 6 0 1 0;
#X connect 7 0 2 0;
#X restore 572 50 pd osc;
#X text 7 -346 fundamental;
#N canvas 0 22 450 300 osc 0;
#X obj 112 131 *~ 0.4;
#X floatatom 199 37 5 0 0 0 - - -, f 5;
#X obj 199 92 line;
#X obj 111 172 outlet~;
#X obj 107 17 inlet;
#X obj 201 6 inlet;
#X msg 199 63 \$1 60;
#X obj 111 66 osc~;
#X connect 0 0 3 0;
#X connect 1 0 6 0;
#X connect 2 0 0 1;
#X connect 4 0 7 0;
#X connect 5 0 1 0;
#X connect 6 0 2 0;
#X connect 7 0 0 0;
#X restore 393 32 pd osc;
#N canvas 0 22 450 300 osc 0;
#X obj 112 131 *~ 0.4;
#X floatatom 199 37 5 0 0 0 - - -, f 5;
#X obj 199 92 line;
#X obj 111 172 outlet~;
#X obj 111 66 osc~;
#X obj 107 17 inlet;
#X obj 201 6 inlet;
#X msg 199 63 \$1 60;
#X connect 0 0 3 0;
#X connect 1 0 7 0;
#X connect 2 0 0 1;
#X connect 4 0 0 0;
#X connect 5 0 4 0;
#X connect 6 0 1 0;
#X connect 7 0 2 0;
#X restore 761 43 pd osc;
#N canvas 0 22 450 300 osc 0;
#X obj 112 131 *~ 0.4;
#X floatatom 199 37 5 0 0 0 - - -, f 5;
#X obj 199 92 line;
#X obj 111 172 outlet~;
#X obj 111 66 osc~;
#X obj 107 17 inlet;
#X obj 201 6 inlet;
#X msg 199 63 \$1 40;
#X connect 0 0 3 0;
#X connect 1 0 7 0;
#X connect 2 0 0 1;
#X connect 4 0 0 0;
#X connect 5 0 4 0;
#X connect 6 0 1 0;
#X connect 7 0 2 0;
#X restore 919 42 pd osc;
#X obj 572 -85 * 4;
#X obj 731 -73 * 5;
#X obj 414 11 hsl 60 15 0 1 0 0 empty empty empty -2 -8 0 10 -262144
-1 -1 2419 1;
#X obj 143 -38 random 100;
#X obj 143 -10 / 100;
#X floatatom 143 19 5 0 0 0 - - -, f 5;
#X obj 283 -55 random 100;
#X obj 283 -27 / 100;
#X floatatom 283 2 5 0 0 0 - - -, f 5;
#X obj 440 -82 random 100;
#X obj 422 -51 / 100;
#X floatatom 422 -22 5 0 0 0 - - -, f 5;
#X obj 620 24 hsl 60 15 0 1 0 0 empty empty empty -2 -8 0 10 -262144
-1 -1 3481 1;
#X obj 628 -38 / 100;
#X floatatom 628 -9 5 0 0 0 - - -, f 5;
#X obj 632 -143 bng 15 250 50 0 empty empty empty 17 7 0 10 -262144
-1 -1;
#X obj 618 -66 random 100;
#N canvas 0 22 450 300 osc 0;
#X obj 112 131 *~ 0.4;
#X floatatom 199 37 5 0 0 0 - - -, f 5;
#X obj 199 92 line;
#X obj 111 172 outlet~;
#X obj 107 17 inlet;
#X obj 201 6 inlet;
#X msg 199 63 \$1 60;
#X obj 111 66 osc~;
#X connect 0 0 3 0;
#X connect 1 0 6 0;
#X connect 2 0 0 1;
#X connect 4 0 7 0;
#X connect 5 0 1 0;
#X connect 6 0 2 0;
#X connect 7 0 0 0;
#X restore 84 48 pd osc;
#X obj 786 16 hsl 60 15 0 1 0 0 empty empty empty -2 -8 0 10 -262144
-1 -1 826 1;
#X obj 794 -46 / 100;
#X floatatom 794 -17 5 0 0 0 - - -, f 5;
#X obj 793 -73 random 100;
#X obj 377 220 *~;
#X obj 968 23 hsl 60 15 0 1 0 0 empty empty empty -2 -8 0 10 -262144
-1 -1 4720 1;
#X obj 976 -39 / 100;
#X floatatom 976 -10 5 0 0 0 - - -, f 5;
#X obj 975 -66 random 100;
#X obj 928 -58 * 12;
#X msg -25 231 start;
#X msg 14 265 stop;
#X msg -95 199 open test666.wav;
#X obj 12 302 writesf~ 2;
#X obj 149 -469 metro;
#X obj 128 -493 tgl 15 0 empty empty empty 17 7 0 10 -262144 -1 -1
1 1;
#X msg 152 -580 60000;
#X obj 200 -547 /;
#X msg 191 -226 155.56;
#X msg 82 -230 130.81;
#X msg 286 -228 196;
#X msg 350 -227 261.63;
#X obj 140 -276 select 0 2 1 3;
#X obj 174 -401 f;
#X obj 189 -363 + 1;
#X obj 256 -321 mod 4;
#X floatatom 250 -579 5 0 0 0 - - -, f 5;
#X obj 393 471 dac~;
#X obj 222 -600 bng 15 250 50 0 empty empty empty 17 7 0 10 -262144
-1 -1;
#X obj 232 -667 loadbang;
#X msg 247 -633 480;
#X obj 392 -390 + 1;
#X obj 405 -339 / 2;
#X floatatom 476 -479 5 0 0 0 - - -, f 5;
#X obj 390 -428 random 3;
#X floatatom 426 -277 5 0 0 0 - - -, f 5;
#X obj 181 -160 *;
#X floatatom 479 -347 5 0 0 0 - - -, f 5;
#X obj 372 346 freeverb~;
#X msg 221 456 print;
#X msg 221 478 freeze \$1;
#X msg 174 208 roomsize \$1;
#X floatatom 170 159 5 0 1 0 - - -, f 5;
#X obj 144 309 hsl 128 15 0 1 0 0 empty empty empty -2 -8 0 10 -262144
-1 -1 5600 1;
#X msg 109 371 wet \$1;
#X obj 154 418 print;
#X obj 223 370 expr 1 - $f1;
#X floatatom 313 414 5 0 0 0 - - -, f 5;
#X msg 225 411 dry \$1;
#X obj 378 290 moog~;
#X obj 412 259 hsl 128 15 20 20000 1 0 empty empty empty -2 -8 0 10
-262144 -1 -1 0 1;
#X floatatom 573 267 5 0 4 0 - - -, f 5;
#X connect 0 0 5 0;
#X connect 0 0 8 0;
#X connect 0 0 32 0;
#X connect 0 0 15 0;
#X connect 0 0 16 0;
#X connect 0 0 42 0;
#X connect 1 0 2 0;
#X connect 2 0 4 0;
#X connect 3 0 37 1;
#X connect 4 0 3 0;
#X connect 5 0 12 0;
#X connect 8 0 9 0;
#X connect 9 0 37 0;
#X connect 10 0 37 0;
#X connect 12 0 37 0;
#X connect 13 0 37 0;
#X connect 14 0 37 0;
#X connect 15 0 10 0;
#X connect 16 0 13 0;
#X connect 17 0 12 1;
#X connect 18 0 19 0;
#X connect 19 0 20 0;
#X connect 20 0 32 1;
#X connect 21 0 22 0;
#X connect 22 0 23 0;
#X connect 23 0 9 1;
#X connect 24 0 25 0;
#X connect 25 0 26 0;
#X connect 26 0 17 0;
#X connect 27 0 10 1;
#X connect 28 0 29 0;
#X connect 29 0 27 0;
#X connect 30 0 31 0;
#X connect 30 0 21 0;
#X connect 30 0 18 0;
#X connect 30 0 36 0;
#X connect 30 0 41 0;
#X connect 30 0 24 0;
#X connect 31 0 28 0;
#X connect 32 0 37 0;
#X connect 33 0 13 1;
#X connect 34 0 35 0;
#X connect 35 0 33 0;
#X connect 36 0 34 0;
#X connect 37 0 7 0;
#X connect 37 0 46 0;
#X connect 37 0 46 1;
#X connect 37 0 82 0;
#X connect 38 0 14 1;
#X connect 39 0 40 0;
#X connect 40 0 38 0;
#X connect 41 0 39 0;
#X connect 42 0 14 0;
#X connect 43 0 46 0;
#X connect 44 0 46 0;
#X connect 45 0 46 0;
#X connect 47 0 56 0;
#X connect 47 0 67 0;
#X connect 48 0 47 0;
#X connect 49 0 50 0;
#X connect 50 0 47 1;
#X connect 51 0 30 0;
#X connect 51 0 69 0;
#X connect 52 0 30 0;
#X connect 52 0 69 0;
#X connect 53 0 30 0;
#X connect 53 0 69 0;
#X connect 54 0 30 0;
#X connect 54 0 69 0;
#X connect 55 0 52 0;
#X connect 55 1 51 0;
#X connect 55 2 53 0;
#X connect 55 3 54 0;
#X connect 56 0 57 0;
#X connect 57 0 58 0;
#X connect 57 0 56 1;
#X connect 58 0 55 0;
#X connect 59 0 50 1;
#X connect 59 0 61 0;
#X connect 61 0 49 0;
#X connect 62 0 63 0;
#X connect 63 0 59 0;
#X connect 64 0 65 0;
#X connect 64 0 70 0;
#X connect 65 0 68 0;
#X connect 65 0 69 1;
#X connect 66 0 67 1;
#X connect 67 0 64 0;
#X connect 69 0 0 0;
#X connect 71 0 60 0;
#X connect 71 1 60 1;
#X connect 74 0 71 0;
#X connect 75 0 74 0;
#X connect 76 0 77 0;
#X connect 76 0 79 0;
#X connect 77 0 71 0;
#X connect 77 0 78 0;
#X connect 79 0 81 0;
#X connect 79 0 80 0;
#X connect 81 0 71 0;
#X connect 82 0 71 0;
#X connect 82 0 71 1;
#X connect 83 0 82 1;
#X connect 84 0 82 2;
