#N canvas 49 51 1231 658 16;
#X floatatom 179 -174 5 0 0 0 - - -, f 5;
#X obj 228 454 dac~;
#X obj 340 152 *~ 0.4;
#X obj 341 239 hsl 60 15 0 1 0 0 empty empty empty -2 -8 0 10 -262144
-1 -1 0 1;
#X floatatom 341 259 5 0 0 0 - - -, f 5;
#X obj 341 314 line;
#X msg 341 285 \$1 60;
#X obj 456 -2 * 3;
#N canvas 0 22 450 278 (subpatch) 0;
#X array forma 64 float 1;
#A 0 -0.040446 -0.0722048 -0.103077 -0.132999 -0.161919 -0.189793 -0.216566
-0.242191 -0.26663 -0.289843 -0.311797 -0.33246 -0.351809 -0.369807
-0.386438 -0.401695 -0.415558 -0.428015 -0.439072 -0.44871 -0.456939
-0.463766 -0.4692 -0.47325 -0.475933 -0.47727 -0.477279 -0.475988 -0.473434
-0.469643 -0.464639 -0.458471 -0.451178 -0.442799 -0.433382 -0.422976
-0.411616 -0.399366 -0.386281 -0.372411 -0.357802 -0.342524 -0.326626
-0.310171 -0.293214 -0.275816 -0.258035 -0.239934 -0.221576 -0.203014
-0.184304 -0.165516 -0.146701 -0.127917 -0.10922 -0.0906611 -0.072294
-0.0541741 -0.0363564 -0.0188762 -0.00178661 0.0148631 0.0310346 0.0466906
;
#X coords 0 1 63 -1 200 140 1 0 0;
#X restore 788 258 graph;
#X obj 549 306 tgl 15 0 empty empty empty 17 7 0 10 -262144 -1 -1 0
1;
#X obj 512 378 tabwrite~ forma;
#X obj 550 333 metro 100;
#X obj 242 -2 * 2;
#X obj 625 -11 * 4;
#X obj 781 -1 * 5;
#X obj 957 -13 * 6;
#X obj 1111 -8 * 7;
#N canvas 445 117 450 300 osc 0;
#X obj 111 66 osc~;
#X obj 112 131 *~ 0.4;
#X floatatom 199 37 5 0 0 0 - - -, f 5;
#X obj 199 92 line;
#X obj 108 -51 inlet;
#X obj 203 -54 inlet;
#X obj 111 172 outlet~;
#X msg 199 63 \$1 3000;
#X connect 0 0 1 0;
#X connect 1 0 6 0;
#X connect 2 0 7 0;
#X connect 3 0 1 1;
#X connect 4 0 0 0;
#X connect 5 0 2 0;
#X connect 7 0 3 0;
#X restore 16 27 pd osc;
#N canvas 445 117 450 300 osc 0;
#X obj 111 66 osc~;
#X obj 112 131 *~ 0.4;
#X floatatom 199 37 5 0 0 0 - - -, f 5;
#X obj 199 92 line;
#X obj 108 -51 inlet;
#X obj 203 -54 inlet;
#X obj 111 172 outlet~;
#X msg 199 63 \$1 3000;
#X connect 0 0 1 0;
#X connect 1 0 6 0;
#X connect 2 0 7 0;
#X connect 3 0 1 1;
#X connect 4 0 0 0;
#X connect 5 0 2 0;
#X connect 7 0 3 0;
#X restore 452 32 pd osc;
#N canvas 445 117 450 300 osc 0;
#X obj 112 131 *~ 0.4;
#X floatatom 199 37 5 0 0 0 - - -, f 5;
#X obj 199 92 line;
#X obj 108 -51 inlet;
#X obj 203 -54 inlet;
#X obj 111 172 outlet~;
#X obj 111 66 osc~;
#X msg 199 63 \$1 3000;
#X connect 0 0 5 0;
#X connect 1 0 7 0;
#X connect 2 0 0 1;
#X connect 3 0 6 0;
#X connect 4 0 1 0;
#X connect 6 0 0 0;
#X connect 7 0 2 0;
#X restore 240 39 pd osc;
#N canvas 445 117 450 300 osc 0;
#X obj 111 66 osc~;
#X obj 112 131 *~ 0.4;
#X floatatom 199 37 5 0 0 0 - - -, f 5;
#X obj 199 92 line;
#X obj 108 -51 inlet;
#X obj 203 -54 inlet;
#X obj 111 172 outlet~;
#X msg 199 63 \$1 3000;
#X connect 0 0 1 0;
#X connect 1 0 6 0;
#X connect 2 0 7 0;
#X connect 3 0 1 1;
#X connect 4 0 0 0;
#X connect 5 0 2 0;
#X connect 7 0 3 0;
#X restore 621 23 pd osc;
#N canvas 445 117 450 300 osc 0;
#X obj 111 66 osc~;
#X obj 112 131 *~ 0.4;
#X floatatom 199 37 5 0 0 0 - - -, f 5;
#X obj 199 92 line;
#X obj 108 -51 inlet;
#X obj 203 -54 inlet;
#X obj 111 172 outlet~;
#X msg 199 63 \$1 3000;
#X connect 0 0 1 0;
#X connect 1 0 6 0;
#X connect 2 0 7 0;
#X connect 3 0 1 1;
#X connect 4 0 0 0;
#X connect 5 0 2 0;
#X connect 7 0 3 0;
#X restore 775 30 pd osc;
#N canvas 445 117 450 300 osc 0;
#X obj 111 66 osc~;
#X obj 112 131 *~ 0.4;
#X floatatom 199 37 5 0 0 0 - - -, f 5;
#X obj 199 92 line;
#X obj 108 -51 inlet;
#X obj 203 -54 inlet;
#X obj 111 172 outlet~;
#X msg 199 63 \$1 3000;
#X connect 0 0 1 0;
#X connect 1 0 6 0;
#X connect 2 0 7 0;
#X connect 3 0 1 1;
#X connect 4 0 0 0;
#X connect 5 0 2 0;
#X connect 7 0 3 0;
#X restore 951 22 pd osc;
#N canvas 445 117 450 300 osc 0;
#X obj 111 66 osc~;
#X obj 112 131 *~ 0.4;
#X floatatom 199 37 5 0 0 0 - - -, f 5;
#X obj 199 92 line;
#X obj 108 -51 inlet;
#X obj 203 -54 inlet;
#X obj 111 172 outlet~;
#X msg 199 63 \$1 3000;
#X connect 0 0 1 0;
#X connect 1 0 6 0;
#X connect 2 0 7 0;
#X connect 3 0 1 1;
#X connect 4 0 0 0;
#X connect 5 0 2 0;
#X connect 7 0 3 0;
#X restore 1115 20 pd osc;
#X obj 117 -89 random 100;
#X obj 117 -61 / 100;
#X floatatom 117 -32 5 0 0 0 - - -, f 5;
#X obj 902 -157 bng 15 250 50 0 empty empty empty 17 7 0 10 -262144
-1 -1;
#X obj 294 -55 random 100;
#X obj 294 -27 / 100;
#X floatatom 294 2 5 0 0 0 - - -, f 5;
#X obj 504 -64 random 100;
#X obj 504 -36 / 100;
#X floatatom 504 -7 5 0 0 0 - - -, f 5;
#X obj 682 -71 random 100;
#X obj 682 -43 / 100;
#X floatatom 682 -14 5 0 0 0 - - -, f 5;
#X obj 831 -66 random 100;
#X obj 831 -38 / 100;
#X floatatom 831 -9 5 0 0 0 - - -, f 5;
#X obj 1007 -71 random 100;
#X obj 1007 -43 / 100;
#X floatatom 1007 -14 5 0 0 0 - - -, f 5;
#X obj 1159 -81 random 100;
#X obj 1159 -53 / 100;
#X floatatom 1159 -24 5 0 0 0 - - -, f 5;
#X floatatom 414 311 5 0 0 0 - - -, f 5;
#X obj 222 421 clip~ -1 1;
#X obj 230 366 *~;
#X text 431 282 distortion;
#X connect 0 0 17 0;
#X connect 0 0 7 0;
#X connect 0 0 12 0;
#X connect 0 0 13 0;
#X connect 0 0 14 0;
#X connect 0 0 15 0;
#X connect 0 0 16 0;
#X connect 2 0 48 0;
#X connect 3 0 4 0;
#X connect 4 0 6 0;
#X connect 5 0 2 1;
#X connect 6 0 5 0;
#X connect 7 0 18 0;
#X connect 9 0 11 0;
#X connect 11 0 10 0;
#X connect 12 0 19 0;
#X connect 13 0 20 0;
#X connect 14 0 21 0;
#X connect 15 0 22 0;
#X connect 16 0 23 0;
#X connect 17 0 2 0;
#X connect 18 0 2 0;
#X connect 19 0 2 0;
#X connect 20 0 2 0;
#X connect 21 0 2 0;
#X connect 22 0 2 0;
#X connect 23 0 2 0;
#X connect 24 0 25 0;
#X connect 25 0 26 0;
#X connect 26 0 17 1;
#X connect 27 0 24 0;
#X connect 27 0 28 0;
#X connect 27 0 31 0;
#X connect 27 0 34 0;
#X connect 27 0 37 0;
#X connect 27 0 40 0;
#X connect 27 0 43 0;
#X connect 28 0 29 0;
#X connect 29 0 30 0;
#X connect 30 0 19 1;
#X connect 31 0 32 0;
#X connect 32 0 33 0;
#X connect 33 0 18 1;
#X connect 34 0 35 0;
#X connect 35 0 36 0;
#X connect 36 0 20 1;
#X connect 37 0 38 0;
#X connect 38 0 39 0;
#X connect 39 0 21 1;
#X connect 40 0 41 0;
#X connect 41 0 42 0;
#X connect 42 0 22 1;
#X connect 43 0 44 0;
#X connect 44 0 45 0;
#X connect 45 0 23 1;
#X connect 46 0 48 1;
#X connect 47 0 1 0;
#X connect 47 0 1 1;
#X connect 47 0 10 0;
#X connect 48 0 47 0;
