#N canvas 39 48 1024 590 10;
#X obj 71 118 noise~;
#X obj 71 167 *~;
#X floatatom 105 142 5 0 0 0 - - -, f 5;
#X obj 72 210 dac~;
#X obj 225 147 lop~;
#X obj 343 150 hip~;
#X obj 243 63 noise~;
#X floatatom 256 123 5 0 0 0 - - -, f 5;
#X floatatom 373 122 10 0 0 0 - - -, f 10;
#X obj 229 244 *~;
#X obj 342 258 *~;
#X obj 273 211 tgl 15 0 empty empty empty 17 7 0 10 -262144 -1 -1 0
1;
#X obj 378 234 tgl 15 0 empty empty empty 17 7 0 10 -262144 -1 -1 0
1;
#X obj 293 287 dac~;
#X obj 224 172 lop~;
#X obj 226 199 lop~;
#X obj 351 177 hip~;
#X obj 349 205 hip~;
#X obj 472 55 noise~;
#X obj 503 102 bp~;
#X floatatom 519 53 5 0 0 0 - - -, f 5;
#X floatatom 562 57 5 0 0 0 - - -, f 5;
#X obj 505 153 *~;
#X obj 534 132 tgl 15 0 empty empty empty 17 7 0 10 -262144 -1 -1 0
1;
#X obj 497 320 dac~;
#X floatatom 564 126 5 0 0 0 - - -, f 5;
#X obj 541 220 freeverb~;
#X obj 512 271 +~;
#X msg 575 153 roomsize 0.9;
#X obj 889 285 dac~;
#X floatatom 937 160 5 0 0 0 - - -, f 5;
#X floatatom 894 101 5 0 0 0 - - -, f 5;
#X floatatom 744 103 5 0 0 0 - - -, f 5;
#X obj 949 234 env~;
#X floatatom 949 254 5 0 0 0 - - -, f 5;
#X obj 897 254 *~ 0.1;
#X msg 893 160 reset;
#X obj 827 102 +~ 1;
#X floatatom 827 60 5 0 0 0 - - -, f 5;
#X floatatom 891 125 5 0 0 0 - - -, f 5;
#X obj 827 81 osc~ 0.25;
#X obj 827 122 *~ 2000;
#X obj 937 179 sig~ 3;
#X obj 744 129 phasor~ 110;
#X text 772 43 comment;
#X obj 897 207 ggee/moog~;
#X obj 836 153 +~ 100;
#X text 59 64 noise;
#X text 253 33 HP/LP;
#X text 505 25 BP/DEKKEN;
#X text 837 22 MOOGfILTER/DEKKEN;
#X obj 983 199 tgl 15 0 empty empty empty 17 7 0 10 -262144 -1 -1 0
1;
#X obj 356 425 freeverb~;
#X obj 739 469 ggee/moog~;
#X connect 0 0 1 0;
#X connect 1 0 3 0;
#X connect 1 0 3 1;
#X connect 2 0 1 1;
#X connect 4 0 14 0;
#X connect 5 0 16 0;
#X connect 6 0 4 0;
#X connect 6 0 5 0;
#X connect 7 0 4 1;
#X connect 7 0 14 1;
#X connect 7 0 15 1;
#X connect 8 0 5 1;
#X connect 8 0 16 1;
#X connect 8 0 17 1;
#X connect 9 0 13 0;
#X connect 9 0 13 1;
#X connect 10 0 13 0;
#X connect 10 0 13 1;
#X connect 11 0 9 1;
#X connect 12 0 10 1;
#X connect 14 0 15 0;
#X connect 15 0 9 0;
#X connect 16 0 17 0;
#X connect 17 0 10 0;
#X connect 18 0 19 0;
#X connect 19 0 22 0;
#X connect 20 0 19 1;
#X connect 21 0 19 2;
#X connect 22 0 26 0;
#X connect 22 0 26 1;
#X connect 22 0 27 0;
#X connect 23 0 22 1;
#X connect 25 0 22 1;
#X connect 26 0 27 1;
#X connect 27 0 24 0;
#X connect 27 0 24 1;
#X connect 28 0 26 0;
#X connect 30 0 42 0;
#X connect 31 0 41 1;
#X connect 32 0 43 0;
#X connect 33 0 34 0;
#X connect 35 0 29 0;
#X connect 35 0 29 1;
#X connect 36 0 45 0;
#X connect 37 0 41 0;
#X connect 38 0 40 0;
#X connect 40 0 37 0;
#X connect 41 0 46 0;
#X connect 42 0 45 2;
#X connect 43 0 45 0;
#X connect 45 0 33 0;
#X connect 45 0 35 0;
#X connect 46 0 45 1;
#X connect 51 0 35 1;
