#N canvas 11 272 1144 656 16;
#X floatatom 183 -160 5 0 0 0 - - -, f 5;
#X obj 228 454 dac~;
#X obj 228 315 *~ 0.4;
#X obj 341 239 hsl 60 15 0 1 0 0 empty empty empty -2 -8 0 10 -262144
-1 -1 3600 1;
#X floatatom 341 259 5 0 0 0 - - -, f 5;
#X obj 341 314 line;
#X msg 341 285 \$1 60;
#X obj 456 -2 * 3;
#N canvas 0 22 450 278 (subpatch) 0;
#X array forma 64 float 1;
#A 0 -0.0822024 -0.0841687 -0.0857132 -0.0868329 -0.0875174 -0.0877607
-0.0875599 -0.0869233 -0.0858433 -0.0843354 -0.0824028 -0.0800559 -0.0773054
-0.0741746 -0.0706698 -0.0668234 -0.062652 -0.0581799 -0.053432 -0.0484405
-0.043227 -0.0378348 -0.03229 -0.0266269 -0.0208793 -0.015086 -0.00927784
-0.00350241 0.00221105 0.00782389 0.013299 0.0185993 0.023689 0.0285244
0.0330802 0.0373201 0.0412114 0.0447247 0.0478265 0.0504864 0.0526857
0.0543987 0.0556038 0.0562841 0.0564164 0.05599 0.0549942 0.0534207
0.0512643 0.0485213 0.0451892 0.0412732 0.0367788 0.0317134 0.026091
0.0199233 0.0132288 0.00602677 -0.00165919 -0.00980585 -0.0183841 -0.027366
-0.0367167 -0.0464056;
#X coords 0 1 63 -1 200 140 1 0 0;
#X restore 810 168 graph;
#X obj 549 306 tgl 15 0 empty empty empty 17 7 0 10 -262144 -1 -1 1
1;
#X obj 512 378 tabwrite~ forma;
#X obj 550 333 metro 100;
#X obj 242 -2 * 2;
#X obj 625 -11 * 4;
#X obj 781 -1 * 5;
#X obj 957 -13 * 6;
#X obj 1111 -8 * 7;
#N canvas 445 117 450 300 osc 0;
#X obj 111 66 osc~;
#X obj 112 131 *~ 0.4;
#X floatatom 199 37 5 0 0 0 - - -, f 5;
#X obj 199 92 line;
#X obj 108 -51 inlet;
#X obj 203 -54 inlet;
#X obj 111 172 outlet~;
#X msg 199 63 \$1 3000;
#X connect 0 0 1 0;
#X connect 1 0 6 0;
#X connect 2 0 7 0;
#X connect 3 0 1 1;
#X connect 4 0 0 0;
#X connect 5 0 2 0;
#X connect 7 0 3 0;
#X restore 16 27 pd osc;
#N canvas 445 117 450 300 osc 0;
#X obj 111 66 osc~;
#X obj 112 131 *~ 0.4;
#X floatatom 199 37 5 0 0 0 - - -, f 5;
#X obj 199 92 line;
#X obj 108 -51 inlet;
#X obj 203 -54 inlet;
#X obj 111 172 outlet~;
#X msg 199 63 \$1 3000;
#X connect 0 0 1 0;
#X connect 1 0 6 0;
#X connect 2 0 7 0;
#X connect 3 0 1 1;
#X connect 4 0 0 0;
#X connect 5 0 2 0;
#X connect 7 0 3 0;
#X restore 452 32 pd osc;
#N canvas 445 117 450 300 osc 0;
#X obj 112 131 *~ 0.4;
#X floatatom 199 37 5 0 0 0 - - -, f 5;
#X obj 199 92 line;
#X obj 108 -51 inlet;
#X obj 203 -54 inlet;
#X obj 111 172 outlet~;
#X obj 111 66 osc~;
#X msg 199 63 \$1 3000;
#X connect 0 0 5 0;
#X connect 1 0 7 0;
#X connect 2 0 0 1;
#X connect 3 0 6 0;
#X connect 4 0 1 0;
#X connect 6 0 0 0;
#X connect 7 0 2 0;
#X restore 240 39 pd osc;
#N canvas 445 117 450 300 osc 0;
#X obj 111 66 osc~;
#X obj 112 131 *~ 0.4;
#X floatatom 199 37 5 0 0 0 - - -, f 5;
#X obj 199 92 line;
#X obj 108 -51 inlet;
#X obj 203 -54 inlet;
#X obj 111 172 outlet~;
#X msg 199 63 \$1 3000;
#X connect 0 0 1 0;
#X connect 1 0 6 0;
#X connect 2 0 7 0;
#X connect 3 0 1 1;
#X connect 4 0 0 0;
#X connect 5 0 2 0;
#X connect 7 0 3 0;
#X restore 621 23 pd osc;
#N canvas 445 117 450 300 osc 0;
#X obj 111 66 osc~;
#X obj 112 131 *~ 0.4;
#X floatatom 199 37 5 0 0 0 - - -, f 5;
#X obj 199 92 line;
#X obj 108 -51 inlet;
#X obj 203 -54 inlet;
#X obj 111 172 outlet~;
#X msg 199 63 \$1 3000;
#X connect 0 0 1 0;
#X connect 1 0 6 0;
#X connect 2 0 7 0;
#X connect 3 0 1 1;
#X connect 4 0 0 0;
#X connect 5 0 2 0;
#X connect 7 0 3 0;
#X restore 775 30 pd osc;
#N canvas 445 117 450 300 osc 0;
#X obj 111 66 osc~;
#X obj 112 131 *~ 0.4;
#X floatatom 199 37 5 0 0 0 - - -, f 5;
#X obj 199 92 line;
#X obj 108 -51 inlet;
#X obj 203 -54 inlet;
#X obj 111 172 outlet~;
#X msg 199 63 \$1 3000;
#X connect 0 0 1 0;
#X connect 1 0 6 0;
#X connect 2 0 7 0;
#X connect 3 0 1 1;
#X connect 4 0 0 0;
#X connect 5 0 2 0;
#X connect 7 0 3 0;
#X restore 951 22 pd osc;
#N canvas 445 117 450 300 osc 0;
#X obj 111 66 osc~;
#X obj 112 131 *~ 0.4;
#X floatatom 199 37 5 0 0 0 - - -, f 5;
#X obj 199 92 line;
#X obj 108 -51 inlet;
#X obj 203 -54 inlet;
#X obj 111 172 outlet~;
#X msg 199 63 \$1 3000;
#X connect 0 0 1 0;
#X connect 1 0 6 0;
#X connect 2 0 7 0;
#X connect 3 0 1 1;
#X connect 4 0 0 0;
#X connect 5 0 2 0;
#X connect 7 0 3 0;
#X restore 1115 20 pd osc;
#X obj 117 -89 random 100;
#X obj 117 -61 / 100;
#X floatatom 117 -32 5 0 0 0 - - -, f 5;
#X obj 902 -157 bng 15 250 50 0 empty empty empty 17 7 0 10 -262144
-1 -1;
#X obj 375 -78 random 100;
#X obj 375 -50 / 100;
#X floatatom 375 -21 5 0 0 0 - - -, f 5;
#X obj 504 -64 random 100;
#X obj 504 -36 / 100;
#X floatatom 504 -7 5 0 0 0 - - -, f 5;
#X obj 682 -71 random 100;
#X obj 682 -43 / 100;
#X floatatom 682 -14 5 0 0 0 - - -, f 5;
#X obj 831 -66 random 100;
#X obj 831 -38 / 100;
#X floatatom 831 -9 5 0 0 0 - - -, f 5;
#X obj 1007 -71 random 100;
#X obj 1007 -43 / 100;
#X floatatom 1007 -14 5 0 0 0 - - -, f 5;
#X obj 1159 -81 random 100;
#X obj 1159 -53 / 100;
#X floatatom 1159 -24 5 0 0 0 - - -, f 5;
#X floatatom 414 311 5 0 0 0 - - -, f 5;
#X obj 222 421 clip~ -1 1;
#X obj 230 366 *~;
#X text 431 282 distortion;
#X obj 708 376 bng 15 250 50 0 empty empty empty 0 -6 0 8 -262144 -1
-1;
#X obj 194 522 noise~;
#X obj 428 441 random 10000;
#X floatatom 428 467 5 0 0 0 - - -, f 5;
#X obj 449 427 bng 15 250 50 0 empty empty empty 0 -6 0 8 -262144 -1
-1;
#X obj 527 463 noise~;
#X obj 526 541 bp~ 0 50;
#X obj 555 494 random 10000;
#X floatatom 555 520 5 0 0 0 - - -, f 5;
#X obj 602 456 bng 15 250 50 0 empty empty empty 0 -6 0 8 -262144 -1
-1;
#X obj 655 461 noise~;
#X obj 654 539 bp~ 0 50;
#X obj 683 492 random 10000;
#X floatatom 683 518 5 0 0 0 - - -, f 5;
#X obj 730 454 bng 15 250 50 0 empty empty empty 0 -6 0 8 -262144 -1
-1;
#X obj 783 461 noise~;
#X obj 782 539 bp~ 0 50;
#X obj 811 492 random 10000;
#X floatatom 811 518 5 0 0 0 - - -, f 5;
#X obj 858 454 bng 15 250 50 0 empty empty empty 0 -6 0 8 -262144 -1
-1;
#X obj 911 456 noise~;
#X obj 910 534 bp~ 0 50;
#X obj 939 487 random 10000;
#X floatatom 939 513 5 0 0 0 - - -, f 5;
#X obj 986 449 bng 15 250 50 0 empty empty empty 0 -6 0 8 -262144 -1
-1;
#X obj 1039 456 noise~;
#X obj 1038 534 bp~ 0 50;
#X obj 1067 487 random 10000;
#X floatatom 1067 513 5 0 0 0 - - -, f 5;
#X obj 1114 449 bng 15 250 50 0 empty empty empty 0 -6 0 8 -262144
-1 -1;
#X obj 1167 454 noise~;
#X obj 1166 532 bp~ 0 50;
#X obj 1195 485 random 10000;
#X floatatom 1195 511 5 0 0 0 - - -, f 5;
#X obj 1242 447 bng 15 250 50 0 empty empty empty 0 -6 0 8 -262144
-1 -1;
#X obj 1295 454 noise~;
#X obj 1294 532 bp~ 0 50;
#X obj 1323 485 random 10000;
#X floatatom 1323 511 5 0 0 0 - - -, f 5;
#X obj 1370 447 bng 15 250 50 0 empty empty empty 0 -6 0 8 -262144
-1 -1;
#X obj 782 675 *~;
#X floatatom 908 653 5 0 0 0 - - -, f 5;
#X obj 750 746 dac~;
#X text 736 373 new color;
#X obj 325 478 +~ 1;
#X floatatom 325 436 5 0 0 0 - - -, f 5;
#X obj 325 498 *~ 2000;
#X obj 334 529 +~ 100;
#X obj 401 673 snapshot~;
#X floatatom 402 728 5 0 0 0 - - -, f 5;
#X obj 532 676 metro 80;
#X obj 529 649 tgl 15 0 empty empty empty 17 7 0 10 -262144 -1 -1 1
1;
#X obj 367 579 bp~ 0 1;
#X obj 325 457 osc~ 0.05;
#X obj 269 -45 +~ 1;
#X floatatom 274 -97 5 0 0 0 - - -, f 5;
#X obj 261 -70 osc~ 0.05;
#X obj 321 2 *~;
#X obj 311 67 snapshot~;
#X obj 346 35 metro 80;
#X obj 388 9 tgl 15 0 empty empty empty 17 7 0 10 -262144 -1 -1 1 1
;
#X connect 0 0 17 0;
#X connect 0 0 7 0;
#X connect 0 0 12 0;
#X connect 0 0 13 0;
#X connect 0 0 14 0;
#X connect 0 0 15 0;
#X connect 0 0 16 0;
#X connect 2 0 48 0;
#X connect 3 0 4 0;
#X connect 4 0 6 0;
#X connect 5 0 2 1;
#X connect 6 0 5 0;
#X connect 7 0 18 0;
#X connect 9 0 11 0;
#X connect 11 0 10 0;
#X connect 12 0 19 0;
#X connect 13 0 20 0;
#X connect 14 0 21 0;
#X connect 15 0 22 0;
#X connect 16 0 23 0;
#X connect 17 0 2 0;
#X connect 18 0 2 0;
#X connect 19 0 2 0;
#X connect 20 0 2 0;
#X connect 21 0 2 0;
#X connect 22 0 2 0;
#X connect 23 0 2 0;
#X connect 24 0 25 0;
#X connect 25 0 26 0;
#X connect 26 0 17 1;
#X connect 27 0 24 0;
#X connect 27 0 28 0;
#X connect 27 0 31 0;
#X connect 27 0 34 0;
#X connect 27 0 37 0;
#X connect 27 0 40 0;
#X connect 27 0 43 0;
#X connect 27 0 50 0;
#X connect 28 0 29 0;
#X connect 29 0 30 0;
#X connect 30 0 107 1;
#X connect 31 0 32 0;
#X connect 32 0 33 0;
#X connect 33 0 18 1;
#X connect 34 0 35 0;
#X connect 35 0 36 0;
#X connect 36 0 20 1;
#X connect 37 0 38 0;
#X connect 38 0 39 0;
#X connect 39 0 21 1;
#X connect 40 0 41 0;
#X connect 41 0 42 0;
#X connect 42 0 22 1;
#X connect 43 0 44 0;
#X connect 44 0 45 0;
#X connect 45 0 23 1;
#X connect 46 0 48 1;
#X connect 47 0 1 0;
#X connect 47 0 1 1;
#X connect 47 0 10 0;
#X connect 48 0 47 0;
#X connect 50 0 54 0;
#X connect 50 0 59 0;
#X connect 50 0 64 0;
#X connect 50 0 69 0;
#X connect 50 0 74 0;
#X connect 50 0 79 0;
#X connect 50 0 84 0;
#X connect 50 0 89 0;
#X connect 51 0 102 0;
#X connect 52 0 53 0;
#X connect 53 0 96 1;
#X connect 54 0 52 0;
#X connect 55 0 56 0;
#X connect 56 0 90 0;
#X connect 57 0 58 0;
#X connect 58 0 56 1;
#X connect 59 0 57 0;
#X connect 60 0 61 0;
#X connect 61 0 90 0;
#X connect 62 0 63 0;
#X connect 63 0 61 1;
#X connect 64 0 62 0;
#X connect 65 0 66 0;
#X connect 66 0 90 0;
#X connect 67 0 68 0;
#X connect 68 0 66 1;
#X connect 69 0 67 0;
#X connect 70 0 71 0;
#X connect 71 0 90 0;
#X connect 72 0 73 0;
#X connect 73 0 71 1;
#X connect 74 0 72 0;
#X connect 75 0 76 0;
#X connect 76 0 90 0;
#X connect 77 0 78 0;
#X connect 78 0 76 1;
#X connect 79 0 77 0;
#X connect 80 0 81 0;
#X connect 81 0 90 0;
#X connect 82 0 83 0;
#X connect 83 0 81 1;
#X connect 84 0 82 0;
#X connect 85 0 86 0;
#X connect 86 0 90 0;
#X connect 87 0 88 0;
#X connect 88 0 86 1;
#X connect 89 0 87 0;
#X connect 90 0 92 0;
#X connect 90 0 92 1;
#X connect 91 0 90 1;
#X connect 94 0 96 0;
#X connect 95 0 103 0;
#X connect 96 0 97 0;
#X connect 97 0 98 0;
#X connect 98 0 99 0;
#X connect 98 0 102 1;
#X connect 100 0 98 0;
#X connect 101 0 100 0;
#X connect 102 0 90 0;
#X connect 103 0 94 0;
#X connect 104 0 107 0;
#X connect 105 0 106 0;
#X connect 106 0 104 0;
#X connect 107 0 108 0;
#X connect 108 0 19 1;
#X connect 109 0 108 0;
#X connect 110 0 109 0;
