#N canvas 184 143 659 345 16;
#X obj 194 4 noise~;
#X obj 109 215 tgl 15 0 empty empty empty 17 7 0 10 -262144 -1 -1 0
1;
#X obj 124 296 dac~;
#X obj 73 233 *~;
#X obj 68 119 lop~;
#X floatatom 128 79 5 0 0 0 - - -, f 5;
#X obj 71 149 lop~;
#X obj 73 178 lop~;
#X obj 199 117 hip~;
#X text 86 56;
#X floatatom 245 85 5 0 0 0 - - -, f 5;
#X obj 241 211 tgl 15 0 empty empty empty 17 7 0 10 -262144 -1 -1 0
1;
#X obj 205 229 *~;
#X text -156 28 solo freqs debajo de la de corte;
#X text 297 34 solo freqs por ecima de la de corte;
#X obj 198 150 hip~;
#X obj 202 186 hip~;
#X obj 331 124 bp~;
#X floatatom 337 79 5 0 0 0 - - -, f 5;
#X floatatom 422 91 5 0 0 0 - - -, f 5;
#X obj 365 195 tgl 15 0 empty empty empty 17 7 0 10 -262144 -1 -1 0
1;
#X obj 329 213 *~;
#X floatatom 416 187 5 0 0 0 - - -, f 5;
#X text 417 160 ganancia exagerada!!;
#X connect 0 0 4 0;
#X connect 0 0 8 0;
#X connect 0 0 17 0;
#X connect 1 0 3 1;
#X connect 3 0 2 0;
#X connect 3 0 2 1;
#X connect 4 0 6 0;
#X connect 5 0 4 1;
#X connect 5 0 6 1;
#X connect 5 0 7 1;
#X connect 6 0 7 0;
#X connect 7 0 3 0;
#X connect 8 0 15 0;
#X connect 10 0 8 1;
#X connect 10 0 15 1;
#X connect 10 0 16 1;
#X connect 11 0 12 1;
#X connect 12 0 2 0;
#X connect 12 0 2 1;
#X connect 15 0 16 0;
#X connect 16 0 12 0;
#X connect 17 0 21 0;
#X connect 18 0 17 1;
#X connect 19 0 17 2;
#X connect 20 0 21 1;
#X connect 21 0 2 0;
#X connect 21 0 2 1;
#X connect 22 0 21 1;
