#N canvas 132 66 719 544 24;
#X obj 112 731 dac~;
#X obj 113 655 *~ 0;
#X obj 180 633 tgl 15 0 empty empty empty 17 7 0 10 -262144 -1 -1 1
1;
#X obj 155 113 tgl 15 0 empty empty empty 17 7 0 10 -262144 -1 -1 1
1;
#X floatatom 281 62 5 0 0 0 - - -, f 5;
#X obj 158 156 metro;
#X obj 115 509 osc~;
#X obj 217 105 /;
#X msg 191 62 60000;
#X text 281 27 bpm;
#X obj 22 271 select 1 2 3 4;
#X msg 21 326 261.63;
#X msg 63 359 311.13;
#X msg 104 393 392;
#X msg 142 333 523.25;
#X obj 15 192 random 4;
#X obj 19 231 + 1;
#X floatatom 225 298 5 0 0 0 - - -, f 5;
#X obj 247 578 *~ 0.3;
#X floatatom 281 416 5 0 0 0 - - -, f 5;
#X text 266 381 octave;
#X floatatom 428 114 5 0 0 0 - - -, f 5;
#X obj 387 177 + 1;
#X obj 383 142 i;
#X obj 384 253 + 1;
#X floatatom 463 252 5 0 0 0 - - -, f 5;
#X obj 384 212 mod 4;
#X obj 111 467 * 0.5;
#X obj 239 465 * 1;
#X obj 497 544 snapshot~;
#X obj 511 486 metro 50;
#X obj 511 428 tgl 15 0 empty empty empty 17 7 0 10 -262144 -1 -1 1
1;
#X floatatom 511 448 5 0 0 0 - - -, f 5;
#X floatatom 498 598 5 0 0 0 - - -, f 5;
#X obj 368 472 phasor~ 0.1;
#X obj 248 505 osc~;
#X connect 1 0 0 0;
#X connect 1 0 0 1;
#X connect 2 0 1 1;
#X connect 3 0 5 0;
#X connect 4 0 7 1;
#X connect 5 0 15 0;
#X connect 5 0 23 0;
#X connect 6 0 1 0;
#X connect 7 0 5 1;
#X connect 8 0 7 0;
#X connect 10 0 11 0;
#X connect 10 1 12 0;
#X connect 10 2 13 0;
#X connect 10 3 14 0;
#X connect 10 4 17 0;
#X connect 11 0 27 0;
#X connect 11 0 28 0;
#X connect 12 0 27 0;
#X connect 12 0 28 0;
#X connect 13 0 27 0;
#X connect 13 0 28 0;
#X connect 14 0 27 0;
#X connect 14 0 28 0;
#X connect 15 0 16 0;
#X connect 18 0 1 0;
#X connect 19 0 28 1;
#X connect 21 0 23 1;
#X connect 22 0 21 0;
#X connect 22 0 26 0;
#X connect 23 0 22 0;
#X connect 24 0 10 0;
#X connect 26 0 24 0;
#X connect 26 0 25 0;
#X connect 27 0 6 0;
#X connect 28 0 35 0;
#X connect 29 0 33 0;
#X connect 30 0 29 0;
#X connect 31 0 30 0;
#X connect 31 0 32 0;
#X connect 34 0 29 0;
#X connect 35 0 18 0;
