#N canvas 192 90 1024 619 16;
#X obj 108 156 osc~ 440;
#X obj 109 260 dac~;
#X obj 110 206 *~ 0;
#X floatatom 104 106 5 0 0 0 - - -, f 5;
#X msg 217 154 0;
#X msg 267 156 1;
#X obj 206 111 line~;
#X msg 211 61 1 100;
#X msg 284 62 0 500;
#X text 125 26 Basic Example;
#X text 413 35 Math & Order;
#X msg 100 64 600;
#X obj 426 122 +;
#X floatatom 422 73 5 0 0 0 - - -, f 5;
#X floatatom 503 72 5 0 0 0 - - -, f 5;
#X floatatom 428 170 5 0 0 0 - - -, f 5;
#X obj 426 204 -;
#X obj 480 204 *;
#X obj 522 203 /;
#X obj 427 248 pow;
#X obj 132 331 bng 15 250 50 0 empty empty empty 17 7 0 10 -262144
-1 -1;
#X floatatom 134 505 5 0 0 0 - - -, f 5;
#X floatatom 208 505 5 0 0 0 - - -, f 5;
#X obj 134 354 trigger bang bang;
#X msg 135 432 3;
#X msg 203 430 5;
#X obj 135 468 * 3;
#X obj 205 471 * 4;
#X obj 137 546 +;
#X floatatom 136 589 5 0 0 0 - - -, f 5;
#X obj 386 388 bng 15 250 50 0 empty empty empty 17 7 0 10 -262144
-1 -1;
#X obj 364 500 print left;
#X obj 530 502 print right;
#X obj 374 420 trigger bang bang;
#X text 736 21 Expressions;
#X floatatom 738 122 5 0 0 0 - - -, f 5;
#X floatatom 736 254 5 0 0 0 - - -, f 5;
#X floatatom 734 188 5 0 0 0 - - -, f 5;
#X floatatom 915 183 5 0 0 0 - - -, f 5;
#X obj 737 224 expr (4*($f1-2)/$f2);
#X text 731 322 sel;
#X floatatom 746 395 5 0 0 0 - - -, f 5;
#X obj 748 470 bng 15 250 50 0 empty empty empty 17 7 0 10 -262144
-1 -1;
#X floatatom 739 53 5 0 0 0 - - -, f 5;
#X floatatom 916 44 5 0 0 0 - - -, f 5;
#X obj 860 51 bng 15 250 50 0 empty empty empty 17 7 0 10 -262144 -1
-1;
#X obj 739 92 expr ($f1*(8-2)/$f2)*$f3;
#X floatatom 996 46 5 0 0 0 - - -, f 5;
#X obj 746 421 select 1 4 8 12;
#X obj 774 464 bng 15 250 50 0 empty empty empty 17 7 0 10 -262144
-1 -1;
#X obj 803 463 bng 15 250 50 0 empty empty empty 17 7 0 10 -262144
-1 -1;
#X obj 831 468 bng 15 250 50 0 empty empty empty 17 7 0 10 -262144
-1 -1;
#X floatatom 910 465 5 0 0 0 - - -, f 5;
#X obj 880 499 bng 15 250 50 0 empty empty empty 17 7 0 10 -262144
-1 -1;
#X connect 0 0 2 0;
#X connect 2 0 1 0;
#X connect 2 0 1 1;
#X connect 3 0 0 0;
#X connect 4 0 2 1;
#X connect 5 0 2 1;
#X connect 7 0 6 0;
#X connect 8 0 6 0;
#X connect 11 0 0 0;
#X connect 12 0 15 0;
#X connect 13 0 12 0;
#X connect 14 0 12 1;
#X connect 20 0 23 0;
#X connect 21 0 28 0;
#X connect 22 0 28 1;
#X connect 23 0 24 0;
#X connect 23 1 25 0;
#X connect 24 0 26 0;
#X connect 25 0 27 0;
#X connect 26 0 21 0;
#X connect 27 0 22 0;
#X connect 28 0 29 0;
#X connect 30 0 33 0;
#X connect 33 0 31 0;
#X connect 33 1 32 0;
#X connect 37 0 39 0;
#X connect 38 0 39 1;
#X connect 39 0 36 0;
#X connect 41 0 48 0;
#X connect 43 0 46 0;
#X connect 44 0 45 0;
#X connect 44 0 46 1;
#X connect 45 0 43 0;
#X connect 46 0 35 0;
#X connect 47 0 46 2;
#X connect 47 0 45 0;
#X connect 48 0 42 0;
#X connect 48 1 49 0;
#X connect 48 2 50 0;
#X connect 48 3 51 0;
#X connect 48 4 52 0;
#X connect 48 4 53 0;
