#N canvas 272 23 1024 645 16;
#X floatatom 117 57 5 0 0 0 - - -, f 5;
#X obj 147 172 tgl 15 0 empty empty empty 17 7 0 10 -262144 -1 -1 0
1;
#X text 40 361 mod;
#X floatatom 46 411 5 0 0 0 - - -, f 5;
#X floatatom 45 529 5 0 0 0 - - -, f 5;
#X obj 117 88 > 3;
#X obj 214 85 < 6;
#X obj 158 127 &&;
#X floatatom 190 166 5 0 0 0 - - -, f 5;
#X obj 471 74 bng 15 250 50 0 empty empty empty 17 7 0 10 -262144 -1
-1;
#X text 457 35 random;
#X text 455 239 float;
#X floatatom 506 444 5 0 0 0 - - -, f 5;
#X obj 453 439 bng 15 250 50 0 empty empty empty 17 7 0 10 -262144
-1 -1;
#X floatatom 468 562 5 0 0 0 - - -, f 5;
#X obj 464 529 + 1;
#X obj 535 525 mod;
#X text 440 401 Counter;
#X text 111 17 logical \, relational operators;
#X obj 676 279 osc~ 440;
#X obj 648 451 dac~;
#X obj 649 397 *~ 0;
#X msg 785 277 0;
#X obj 641 60 metro;
#X obj 620 36 tgl 15 0 empty empty empty 17 7 0 10 -262144 -1 -1 0
1;
#X obj 637 148 + 200;
#X msg 656 -67 60000;
#X obj 692 -18 /;
#X floatatom 730 -69 5 0 0 0 - - -, f 5;
#X text 732 -91 bpm;
#X floatatom 693 18 5 0 0 0 - - -, f 5;
#X obj 644 103 random 4;
#X msg 946 173 155.56;
#X msg 862 172 130.81;
#X msg 1041 171 196;
#X msg 1105 172 261.63;
#X obj 813 390 +~;
#X msg 838 287 0.4;
#X obj 926 288 *~ 2.5;
#X floatatom 504 282 5 0 0 0 - - -, f 5;
#X obj 957 -22 f;
#X floatatom 984 -61 5 0 0 0 - - -, f 5;
#X floatatom 1097 53 5 0 0 0 - - -, f 5;
#X obj 953 24 + 1;
#X obj 1024 20 mod 4;
#X obj 866 352 *~ 0.1;
#X obj 910 317 phasor~ 440;
#X obj 877 110 select 0 2 1 3;
#X obj 1094 283 vsl 15 128 0 1 0 0 empty empty empty 0 -9 0 10 -262144
-1 -1 0 1;
#X obj 795 55 spigot;
#X obj 882 59 spigot;
#X obj 870 -76 bng 15 250 50 0 empty empty empty 17 7 0 10 -262144
-1 -1;
#X obj 846 -14 tgl 15 0 empty empty empty 17 7 0 10 -262144 -1 -1 0
1;
#X obj 893 -15 tgl 15 0 empty empty empty 17 7 0 10 -262144 -1 -1 0
1;
#X obj 726 219 bng 15 250 50 0 empty empty empty 17 7 0 10 -262144
-1 -1;
#X floatatom 301 73 5 0 0 0 - - -, f 5;
#X floatatom 294 164 5 0 0 0 - - -, f 5;
#X obj 369 186 tgl 15 0 empty empty empty 17 7 0 10 -262144 -1 -1 1
1;
#X obj 299 124 > 6;
#X obj 319 229 ||;
#X floatatom 114 217 5 0 0 0 - - -, f 5;
#X obj 179 346 tgl 15 0 empty empty empty 17 7 0 10 -262144 -1 -1 1
1;
#X floatatom 224 223 5 0 0 0 - - -, f 5;
#X obj 178 301 !=;
#X obj 46 459 mod 16;
#X obj 43 495 + 1;
#X floatatom 465 193 5 0 0 0 - - -, f 5;
#X obj 471 106 random 600;
#X obj 468 153 - 300;
#X obj 447 274 bng 15 250 50 0 empty empty empty 17 7 0 10 -262144
-1 -1;
#X floatatom 456 360 5 0 0 0 - - -, f 5;
#X obj 457 320 float;
#X obj 468 483 i;
#X connect 0 0 5 0;
#X connect 0 0 6 0;
#X connect 3 0 64 0;
#X connect 5 0 7 0;
#X connect 6 0 7 1;
#X connect 7 0 1 0;
#X connect 7 0 8 0;
#X connect 9 0 67 0;
#X connect 12 0 72 1;
#X connect 13 0 72 0;
#X connect 15 0 14 0;
#X connect 15 0 12 0;
#X connect 19 0 36 0;
#X connect 21 0 20 0;
#X connect 21 0 20 1;
#X connect 22 0 21 1;
#X connect 23 0 31 0;
#X connect 23 0 40 0;
#X connect 24 0 23 0;
#X connect 26 0 27 0;
#X connect 27 0 30 0;
#X connect 27 0 23 1;
#X connect 28 0 27 1;
#X connect 31 0 25 0;
#X connect 31 0 49 0;
#X connect 32 0 19 0;
#X connect 32 0 38 0;
#X connect 33 0 19 0;
#X connect 33 0 38 0;
#X connect 34 0 19 0;
#X connect 34 0 38 0;
#X connect 35 0 19 0;
#X connect 35 0 38 0;
#X connect 36 0 21 0;
#X connect 37 0 21 1;
#X connect 38 0 46 0;
#X connect 39 0 71 1;
#X connect 40 0 43 0;
#X connect 41 0 40 1;
#X connect 43 0 40 1;
#X connect 43 0 44 0;
#X connect 44 0 42 0;
#X connect 44 0 50 0;
#X connect 45 0 36 1;
#X connect 46 0 45 0;
#X connect 47 0 33 0;
#X connect 47 1 32 0;
#X connect 47 2 34 0;
#X connect 47 3 35 0;
#X connect 48 0 21 1;
#X connect 49 0 47 0;
#X connect 50 0 47 0;
#X connect 51 0 52 0;
#X connect 51 0 53 0;
#X connect 52 0 49 1;
#X connect 53 0 50 1;
#X connect 55 0 58 0;
#X connect 58 0 56 0;
#X connect 58 0 57 0;
#X connect 60 0 63 0;
#X connect 62 0 63 1;
#X connect 63 0 61 0;
#X connect 64 0 65 0;
#X connect 65 0 4 0;
#X connect 67 0 68 0;
#X connect 68 0 66 0;
#X connect 69 0 71 0;
#X connect 71 0 70 0;
#X connect 72 0 15 0;
