#N canvas 140 92 1024 621 12;
#N canvas 0 22 450 278 (subpatch) 0;
#X array array1 16 float 3;
#A 0 30.4285 31.6285 31.9714 31.6285 30.0857 30.3428 30.8571 28.9713
29.6571 33.0858 30.9428 30.7714 29.0571 29.0571 32.2286 31.8857;
#X coords 0 36 16 24 200 140 1 0 0;
#X restore 353 63 graph;
#X floatatom 45 98 5 0 0 0 - - -, f 5;
#X floatatom 122 101 5 0 0 0 - - -, f 5;
#X obj 41 140 tabwrite array1;
#X msg 5 213 \; array1 write ar1.txt;
#X obj 225 108 + 1;
#X obj 217 18 tgl 15 0 empty empty empty 17 7 0 10 -262144 -1 -1 1
1;
#X obj 221 40 metro 500;
#X obj 221 205 tabread array1;
#X floatatom 295 169 5 0 0 0 - - -, f 5;
#X floatatom 227 264 5 0 0 0 - - -, f 5;
#X obj 228 235 i;
#X obj 230 315 mtof;
#X obj 230 286 + 36;
#X obj 225 139 mod 16;
#X obj 224 76 i;
#X msg 6 284 \; array1 read ar1.txt;
#X obj 647 329 soundfiler;
#X floatatom 647 356 5 0 0 0 - - -, f 5;
#N canvas 0 22 450 278 (subpatch) 0;
#X array sample666 6816 float 2;
#X coords 0 1 6816 -1 200 140 1 0 0;
#X restore 665 83 graph;
#X obj 387 355 soundfiler;
#X floatatom 387 385 5 0 0 0 - - -, f 5;
#X msg 647 301 read -resize fx_bleep1.wav sample666;
#X obj 387 296 openpanel;
#X msg 387 327 read \$1 sample666;
#X obj 386 268 bng 15 250 50 0 empty empty empty 17 7 0 10 -262144
-1 -1;
#X obj 778 489 line~;
#X obj 779 561 *~ 0.7;
#X obj 779 606 dac~;
#X msg 777 456 0 \, \$1 800;
#X obj 828 353 vsl 15 60 20000 120000 0 0 empty empty empty 0 -9 0
10 -262144 -1 -1 4000 1;
#X obj 780 419 f;
#X obj 780 381 bng 15 250 50 0 empty empty empty 17 7 0 10 -262144
-1 -1;
#X obj 779 520 tabread4~ sample666;
#X connect 1 0 3 0;
#X connect 2 0 3 1;
#X connect 5 0 14 0;
#X connect 5 0 15 1;
#X connect 6 0 7 0;
#X connect 7 0 15 0;
#X connect 8 0 11 0;
#X connect 10 0 13 0;
#X connect 11 0 10 0;
#X connect 13 0 12 0;
#X connect 14 0 9 0;
#X connect 14 0 8 0;
#X connect 15 0 5 0;
#X connect 17 0 18 0;
#X connect 20 0 21 0;
#X connect 22 0 17 0;
#X connect 23 0 24 0;
#X connect 24 0 20 0;
#X connect 25 0 23 0;
#X connect 26 0 33 0;
#X connect 27 0 28 0;
#X connect 27 0 28 1;
#X connect 29 0 26 0;
#X connect 30 0 31 1;
#X connect 31 0 29 0;
#X connect 32 0 31 0;
#X connect 33 0 27 0;
