#N canvas 488 82 883 513 12;
#X obj 83 97 tabwrite sample;
#X floatatom 74 62 5 0 0 0 - - -, f 5;
#N canvas 0 22 450 278 (subpatch) 0;
#X array sample 6816 float 2;
#X coords 0 1 6816 -1 200 140 1;
#X restore 397 97 graph;
#X floatatom 194 60 5 0 0 0 - - -, f 5;
#X msg 55 224 \; sample write ar1.txt;
#X msg 66 303 \; sample read ar1.txt;
#X text 60 191 Write array in textfile;
#X text 52 276 Read array from textfile;
#X obj 303 270 soundfiler;
#X floatatom 303 301 5 0 0 0 - - -, f 5;
#X msg 303 241 read -resize fx_bleep1.wav sample;
#X text 336 215 LoadFile in array;
#X text 649 225 PlayBack File;
#X obj 624 287 line~;
#X obj 625 359 *~ 0.7;
#X obj 625 404 dac~;
#X obj 625 318 tabread~ sample;
#X msg 623 254 0 \, \$1 1500;
#X obj 617 104 vsl 15 128 0 127 0 0 empty empty empty 0 -9 0 10 -262144
-1 -1 0 1;
#X connect 1 0 0 0;
#X connect 3 0 0 1;
#X connect 8 0 9 0;
#X connect 10 0 8 0;
#X connect 13 0 16 0;
#X connect 14 0 15 0;
#X connect 14 0 15 1;
#X connect 16 0 14 0;
#X connect 17 0 13 0;
