#N canvas 48 254 1168 664 10;
#X obj 39 118 metro;
#X obj 37 77 tgl 15 0 empty empty empty 17 7 0 10 -262144 -1 -1 1 1
;
#X floatatom 137 27 5 0 0 0 - - -, f 5;
#X text 138 5 bpm;
#X obj 39 173 f;
#X obj 40 201 + 1;
#X obj -159 257 hradio 15 1 0 16 empty empty empty 0 -8 0 10 -262144
-1 -1 11;
#X obj 40 228 mod 16;
#X msg 78 34 60000;
#X obj 92 56 /;
#X obj 89 85 / 4;
#X obj -160 279 select 0 1 2 3 4 5 6 7 8 9 10 11 12 13 14 15;
#X obj 81 459 line~;
#X obj 93 660 *~ 0.7;
#X obj 93 705 dac~;
#X obj 82 490 tabread4~ sample;
#X obj -155 334 f;
#X obj 162 272 tgl 15 0 empty empty empty 17 7 0 10 -262144 -1 -1 1
1;
#X obj 179 272 tgl 15 0 empty empty empty 17 7 0 10 -262144 -1 -1 0
1;
#X obj -118 335 f;
#X obj -80 338 f;
#X obj -45 338 f;
#X obj 196 272 tgl 15 0 empty empty empty 17 7 0 10 -262144 -1 -1 0
1;
#X obj 213 272 tgl 15 0 empty empty empty 17 7 0 10 -262144 -1 -1 0
1;
#X obj 79 396 select 1;
#X obj -2 338 f;
#X obj 231 272 tgl 15 0 empty empty empty 17 7 0 10 -262144 -1 -1 1
1;
#X obj 38 336 f;
#X obj 249 272 tgl 15 0 empty empty empty 17 7 0 10 -262144 -1 -1 0
1;
#X obj 78 336 f;
#X obj 267 272 tgl 15 0 empty empty empty 17 7 0 10 -262144 -1 -1 1
1;
#X obj 110 339 f;
#X obj 285 272 tgl 15 0 empty empty empty 17 7 0 10 -262144 -1 -1 0
1;
#X obj 141 338 f;
#X obj 304 272 tgl 15 0 empty empty empty 17 7 0 10 -262144 -1 -1 0
1;
#X obj 168 339 f;
#X obj 323 272 tgl 15 0 empty empty empty 17 7 0 10 -262144 -1 -1 0
1;
#X obj 196 338 f;
#X obj 340 272 tgl 15 0 empty empty empty 17 7 0 10 -262144 -1 -1 1
1;
#X obj 226 341 f;
#X obj 358 272 tgl 15 0 empty empty empty 17 7 0 10 -262144 -1 -1 0
1;
#X obj 254 342 f;
#X obj 377 272 tgl 15 0 empty empty empty 17 7 0 10 -262144 -1 -1 1
1;
#X obj 282 342 f;
#X obj 395 272 tgl 15 0 empty empty empty 17 7 0 10 -262144 -1 -1 1
1;
#X obj 314 343 f;
#X obj 413 272 tgl 15 0 empty empty empty 17 7 0 10 -262144 -1 -1 0
1;
#X obj 343 345 f;
#X obj 431 272 tgl 15 0 empty empty empty 17 7 0 10 -262144 -1 -1 1
1;
#X obj 111 578 freeverb~;
#X obj -153 535 hsl 128 15 0 1 0 0 empty empty empty -2 -8 0 10 -262144
-1 -1 0 1;
#X msg -126 575 wet \$1;
#X obj -72 574 expr 1 - $f1;
#X msg -47 604 dry \$1;
#X msg -179 615 freeze 0;
#X msg -106 622 freeze 1;
#X obj 408 163 loadbang;
#X msg 411 193 1;
#N canvas 0 22 450 278 (subpatch) 0;
#X array sample 27498 float 2;
#X coords 0 1 27498 -1 200 140 1;
#X restore 515 680 graph;
#X obj 372 627 soundfiler;
#X floatatom 372 658 5 0 0 0 - - -, f 5;
#X text 405 572 LoadFile in array;
#X msg 372 598 read -resize kik_bass1.wav sample;
#X msg 191 6 122;
#X msg -147 490 0.2;
#X msg 80 426 0 \, 44100 800;
#X connect 0 0 4 0;
#X connect 1 0 0 0;
#X connect 2 0 8 0;
#X connect 2 0 9 1;
#X connect 4 0 5 0;
#X connect 5 0 4 1;
#X connect 5 0 7 0;
#X connect 6 0 11 0;
#X connect 7 0 6 0;
#X connect 8 0 9 0;
#X connect 9 0 10 0;
#X connect 10 0 0 1;
#X connect 11 0 16 0;
#X connect 11 1 19 0;
#X connect 11 2 20 0;
#X connect 11 3 21 0;
#X connect 11 4 25 0;
#X connect 11 5 27 0;
#X connect 11 6 29 0;
#X connect 11 7 31 0;
#X connect 11 8 33 0;
#X connect 11 9 35 0;
#X connect 11 10 37 0;
#X connect 11 11 39 0;
#X connect 11 12 41 0;
#X connect 11 13 43 0;
#X connect 11 14 45 0;
#X connect 11 15 47 0;
#X connect 12 0 15 0;
#X connect 13 0 14 0;
#X connect 13 0 14 1;
#X connect 15 0 49 0;
#X connect 15 0 49 1;
#X connect 16 0 24 0;
#X connect 17 0 16 1;
#X connect 18 0 19 1;
#X connect 19 0 24 0;
#X connect 20 0 24 0;
#X connect 21 0 24 0;
#X connect 22 0 20 1;
#X connect 23 0 21 1;
#X connect 24 0 65 0;
#X connect 25 0 24 0;
#X connect 26 0 25 1;
#X connect 27 0 24 0;
#X connect 28 0 27 1;
#X connect 29 0 24 0;
#X connect 30 0 29 1;
#X connect 31 0 24 0;
#X connect 32 0 31 1;
#X connect 33 0 24 0;
#X connect 34 0 33 1;
#X connect 35 0 24 0;
#X connect 36 0 35 1;
#X connect 37 0 24 0;
#X connect 38 0 37 1;
#X connect 39 0 24 0;
#X connect 40 0 39 1;
#X connect 41 0 24 0;
#X connect 42 0 41 1;
#X connect 43 0 24 0;
#X connect 44 0 43 1;
#X connect 45 0 24 0;
#X connect 46 0 45 1;
#X connect 47 0 24 0;
#X connect 48 0 47 1;
#X connect 49 0 13 0;
#X connect 49 1 13 0;
#X connect 50 0 51 0;
#X connect 50 0 52 0;
#X connect 51 0 49 0;
#X connect 52 0 53 0;
#X connect 53 0 49 0;
#X connect 54 0 49 0;
#X connect 55 0 49 0;
#X connect 56 0 57 0;
#X connect 56 0 63 0;
#X connect 57 0 17 0;
#X connect 57 0 26 0;
#X connect 57 0 30 0;
#X connect 57 0 38 0;
#X connect 57 0 42 0;
#X connect 57 0 44 0;
#X connect 57 0 48 0;
#X connect 57 0 64 0;
#X connect 59 0 60 0;
#X connect 62 0 59 0;
#X connect 63 0 2 0;
#X connect 64 0 50 0;
#X connect 65 0 12 0;
