#N canvas 434 127 1024 651 12;
#X obj 94 136 metro;
#X obj 91 98 tgl 15 0 empty empty empty 17 7 0 10 -262144 -1 -1 0 1
;
#X msg 138 31 60000;
#X obj 181 57 /;
#X floatatom 224 23 5 0 0 0 - - -, f 5;
#X text 221 0 BPM;
#X obj 180 91 / 4;
#X obj 182 7 bng 15 250 50 0 empty empty empty 17 7 0 10 -262144 -1
-1;
#X obj 94 191 f;
#X obj 94 235 + 1;
#X obj 97 282 mod 16;
#X obj 92 326 hradio 15 1 0 16 empty empty empty 0 -8 0 10 -262144
-1 -1 9;
#X obj 171 358 select 0 1 2 3 4 5 6 7 8 9 10 11 12 13 14 15;
#X obj 94 426 f;
#X obj 571 362 tgl 15 0 empty empty empty 17 7 0 10 -262144 -1 -1 1
1;
#X obj 136 428 f;
#X obj 591 362 tgl 15 0 empty empty empty 17 7 0 10 -262144 -1 -1 0
1;
#X obj 344 500 select 1;
#X obj 359 37 soundfiler;
#X floatatom 359 64 5 0 0 0 - - -, f 5;
#N canvas 0 22 450 278 (subpatch) 0;
#X array sample666 27498 float 2;
#X coords 0 1 27498 -1 200 140 1 0 0;
#X restore 363 116 graph;
#X obj 340 658 line~;
#X obj 341 730 *~ 0.7;
#X obj 341 775 dac~;
#X obj 400 533 vsl 15 60 20000 120000 0 0 empty empty empty 0 -9 0
10 -262144 -1 -1 1600 1;
#X obj 342 588 f;
#X obj 343 559 bng 15 250 50 0 empty empty empty 17 7 0 10 -262144
-1 -1;
#X obj 341 689 tabread4~ sample666;
#X msg 359 9 read -resize kik_bass1.wav sample666;
#X obj 175 429 f;
#X obj 613 362 tgl 15 0 empty empty empty 17 7 0 10 -262144 -1 -1 0
1;
#X obj 215 428 f;
#X obj 632 362 tgl 15 0 empty empty empty 17 7 0 10 -262144 -1 -1 0
1;
#X obj 267 425 f;
#X obj 654 362 tgl 15 0 empty empty empty 17 7 0 10 -262144 -1 -1 1
1;
#X msg 339 625 0 \, \$1 800;
#X obj 316 425 f;
#X obj 672 363 tgl 15 0 empty empty empty 17 7 0 10 -262144 -1 -1 1
1;
#X obj 362 425 f;
#X obj 691 364 tgl 15 0 empty empty empty 17 7 0 10 -262144 -1 -1 0
1;
#X obj 411 425 f;
#X obj 712 363 tgl 15 0 empty empty empty 17 7 0 10 -262144 -1 -1 0
1;
#X obj 448 423 f;
#X obj 732 362 tgl 15 0 empty empty empty 17 7 0 10 -262144 -1 -1 1
1;
#X obj 497 423 f;
#X obj 752 362 tgl 15 0 empty empty empty 17 7 0 10 -262144 -1 -1 0
1;
#X obj 543 426 f;
#X obj 774 362 tgl 15 0 empty empty empty 17 7 0 10 -262144 -1 -1 1
1;
#X obj 592 426 f;
#X obj 795 362 tgl 15 0 empty empty empty 17 7 0 10 -262144 -1 -1 0
1;
#X obj 632 428 f;
#X obj 815 361 tgl 15 0 empty empty empty 17 7 0 10 -262144 -1 -1 0
1;
#X obj 686 431 f;
#X obj 833 362 tgl 15 0 empty empty empty 17 7 0 10 -262144 -1 -1 1
1;
#X obj 733 428 f;
#X obj 853 363 tgl 15 0 empty empty empty 17 7 0 10 -262144 -1 -1 0
1;
#X obj 773 430 f;
#X obj 872 362 tgl 15 0 empty empty empty 17 7 0 10 -262144 -1 -1 1
1;
#N canvas 422 257 947 599 percs 0;
#X obj 61 289 select 0 1 2 3 4 5 6 7 8 9 10 11 12 13 14 15;
#X obj -16 357 f;
#X obj 110 129 tgl 15 0 empty empty empty 17 7 0 10 -262144 -1 -1 1
1;
#X obj 26 359 f;
#X obj 130 129 tgl 15 0 empty empty empty 17 7 0 10 -262144 -1 -1 0
1;
#X obj 234 431 select 1;
#X obj 230 589 line~;
#X obj 514 130 vsl 15 60 0 800 0 0 empty empty empty 0 -9 0 10 -262144
-1 -1 1724 1;
#X obj 232 519 f;
#X obj 233 490 bng 15 250 50 0 empty empty empty 17 7 0 10 -262144
-1 -1;
#X obj 65 360 f;
#X obj 152 129 tgl 15 0 empty empty empty 17 7 0 10 -262144 -1 -1 0
1;
#X obj 105 359 f;
#X obj 171 129 tgl 15 0 empty empty empty 17 7 0 10 -262144 -1 -1 1
1;
#X obj 157 356 f;
#X obj 193 129 tgl 15 0 empty empty empty 17 7 0 10 -262144 -1 -1 0
1;
#X obj 206 356 f;
#X obj 211 130 tgl 15 0 empty empty empty 17 7 0 10 -262144 -1 -1 1
1;
#X obj 252 356 f;
#X obj 230 131 tgl 15 0 empty empty empty 17 7 0 10 -262144 -1 -1 0
1;
#X obj 301 356 f;
#X obj 251 130 tgl 15 0 empty empty empty 17 7 0 10 -262144 -1 -1 0
1;
#X obj 338 354 f;
#X obj 271 129 tgl 15 0 empty empty empty 17 7 0 10 -262144 -1 -1 1
1;
#X obj 387 354 f;
#X obj 291 129 tgl 15 0 empty empty empty 17 7 0 10 -262144 -1 -1 0
1;
#X obj 433 357 f;
#X obj 313 129 tgl 15 0 empty empty empty 17 7 0 10 -262144 -1 -1 0
1;
#X obj 482 357 f;
#X obj 334 129 tgl 15 0 empty empty empty 17 7 0 10 -262144 -1 -1 0
1;
#X obj 522 359 f;
#X obj 354 128 tgl 15 0 empty empty empty 17 7 0 10 -262144 -1 -1 0
1;
#X obj 576 362 f;
#X obj 372 129 tgl 15 0 empty empty empty 17 7 0 10 -262144 -1 -1 0
1;
#X obj 623 359 f;
#X obj 392 130 tgl 15 0 empty empty empty 17 7 0 10 -262144 -1 -1 0
1;
#X obj 663 361 f;
#X obj 411 129 tgl 15 0 empty empty empty 17 7 0 10 -262144 -1 -1 0
1;
#X obj 569 457 soundfiler;
#X floatatom 569 484 5 0 0 0 - - -, f 5;
#N canvas 0 22 450 278 (subpatch) 0;
#X array sample66 35506 float 2;
#X coords 0 1 35506 -1 200 140 1 0 0;
#X restore 600 528 graph;
#X obj 10 25 inlet;
#X obj 230 684 *~;
#X obj 486 550 cnv 15 100 60 empty empty empty 20 12 0 14 -233017 -66577
0;
#X obj 231 716 outlet~;
#X obj 595 131 vsl 15 60 0 1 0 0 empty empty empty 0 -9 0 10 -262144
-1 -1 2100 1;
#X text 454 100 Velocidad;
#X obj 358 522 random 900;
#X obj 359 714 dac~;
#X msg 569 429 read -resize fx_hi_frq_thng2.wav sample66;
#X msg 229 556 0 \, 44000 \$1;
#X obj 362 548 + 100;
#X obj 231 620 tabread4~ sample66;
#X obj 568 399 loadbang;
#X connect 0 0 1 0;
#X connect 0 1 3 0;
#X connect 0 2 10 0;
#X connect 0 3 12 0;
#X connect 0 4 14 0;
#X connect 0 5 16 0;
#X connect 0 6 18 0;
#X connect 0 7 20 0;
#X connect 0 8 22 0;
#X connect 0 9 24 0;
#X connect 0 10 26 0;
#X connect 0 11 28 0;
#X connect 0 12 30 0;
#X connect 0 13 32 0;
#X connect 0 14 34 0;
#X connect 0 15 36 0;
#X connect 1 0 5 0;
#X connect 2 0 1 1;
#X connect 3 0 5 0;
#X connect 4 0 3 1;
#X connect 5 0 9 0;
#X connect 6 0 52 0;
#X connect 8 0 50 0;
#X connect 9 0 8 0;
#X connect 9 0 47 0;
#X connect 10 0 5 0;
#X connect 11 0 10 1;
#X connect 12 0 5 0;
#X connect 13 0 12 1;
#X connect 14 0 5 0;
#X connect 15 0 14 1;
#X connect 16 0 5 0;
#X connect 17 0 16 1;
#X connect 18 0 5 0;
#X connect 19 0 18 1;
#X connect 20 0 5 0;
#X connect 21 0 20 1;
#X connect 22 0 5 0;
#X connect 23 0 22 1;
#X connect 24 0 5 0;
#X connect 25 0 24 1;
#X connect 26 0 5 0;
#X connect 27 0 26 1;
#X connect 28 0 5 0;
#X connect 29 0 28 1;
#X connect 30 0 5 0;
#X connect 31 0 30 1;
#X connect 32 0 5 0;
#X connect 33 0 32 1;
#X connect 34 0 5 0;
#X connect 35 0 34 1;
#X connect 36 0 5 0;
#X connect 37 0 36 1;
#X connect 38 0 39 0;
#X connect 41 0 0 0;
#X connect 42 0 44 0;
#X connect 42 0 48 0;
#X connect 42 0 48 1;
#X connect 45 0 42 1;
#X connect 47 0 51 0;
#X connect 49 0 38 0;
#X connect 50 0 6 0;
#X connect 51 0 8 1;
#X connect 51 0 7 0;
#X connect 52 0 42 0;
#X connect 53 0 49 0;
#X coords 0 -1 1 1 600 120 1 100 100;
#X restore 686 124 pd percs;
#X obj 689 301 dac~;
#X connect 0 0 8 0;
#X connect 1 0 0 0;
#X connect 2 0 3 0;
#X connect 3 0 6 0;
#X connect 4 0 3 1;
#X connect 4 0 7 0;
#X connect 6 0 0 1;
#X connect 7 0 2 0;
#X connect 8 0 9 0;
#X connect 9 0 8 1;
#X connect 9 0 10 0;
#X connect 10 0 11 0;
#X connect 11 0 12 0;
#X connect 11 0 58 0;
#X connect 12 0 13 0;
#X connect 12 1 15 0;
#X connect 12 2 29 0;
#X connect 12 3 31 0;
#X connect 12 4 33 0;
#X connect 12 5 36 0;
#X connect 12 6 38 0;
#X connect 12 7 40 0;
#X connect 12 8 42 0;
#X connect 12 9 44 0;
#X connect 12 10 46 0;
#X connect 12 11 48 0;
#X connect 12 12 50 0;
#X connect 12 13 52 0;
#X connect 12 14 54 0;
#X connect 12 15 56 0;
#X connect 13 0 17 0;
#X connect 14 0 13 1;
#X connect 15 0 17 0;
#X connect 16 0 15 1;
#X connect 17 0 26 0;
#X connect 18 0 19 0;
#X connect 21 0 27 0;
#X connect 22 0 23 0;
#X connect 22 0 23 1;
#X connect 24 0 25 1;
#X connect 25 0 35 0;
#X connect 26 0 25 0;
#X connect 27 0 22 0;
#X connect 28 0 18 0;
#X connect 29 0 17 0;
#X connect 30 0 29 1;
#X connect 31 0 17 0;
#X connect 32 0 31 1;
#X connect 33 0 17 0;
#X connect 34 0 33 1;
#X connect 35 0 21 0;
#X connect 36 0 17 0;
#X connect 37 0 36 1;
#X connect 38 0 17 0;
#X connect 39 0 38 1;
#X connect 40 0 17 0;
#X connect 41 0 40 1;
#X connect 42 0 17 0;
#X connect 43 0 42 1;
#X connect 44 0 17 0;
#X connect 45 0 44 1;
#X connect 46 0 17 0;
#X connect 47 0 46 1;
#X connect 48 0 17 0;
#X connect 49 0 48 1;
#X connect 50 0 17 0;
#X connect 51 0 50 1;
#X connect 52 0 17 0;
#X connect 53 0 52 1;
#X connect 54 0 17 0;
#X connect 55 0 54 1;
#X connect 56 0 17 0;
#X connect 57 0 56 1;
#X connect 58 0 59 0;
#X connect 58 0 59 1;
