#N canvas 536 23 925 412 10;
#X obj 109 10 midirealtimein;
#X floatatom 109 40 5 0 0 0 - - -, f 5;
#X obj 479 113 midiclkin;
#X floatatom 476 142 5 0 0 0 - - -, f 5;
#X obj 108 63 sel 248;
#X obj 109 89 f;
#X obj 109 127 + 1;
#X obj 111 190 sel 0;
#X obj 107 232 bng 15 250 50 0 empty empty empty 17 7 0 10 -262144
-1 -1;
#X obj 109 149 mod 6;
#X connect 0 0 1 0;
#X connect 1 0 4 0;
#X connect 2 0 3 0;
#X connect 4 0 5 0;
#X connect 5 0 6 0;
#X connect 6 0 5 1;
#X connect 6 0 9 0;
#X connect 7 0 8 0;
#X connect 9 0 7 0;
