#N canvas 123 97 838 562 10;
#X obj 475 410 lop~;
#X text 220 106 Center Frequency;
#X obj 218 133 hsl 128 15 20 20000 1 0 \$0-filter1Freq empty empty
-2 -8 0 10 -261682 -1 -1 1500 1;
#X obj 108 238 lfo1;
#X obj 635 411 vcf~;
#X floatatom 170 160 5 0 0 0 - - -, f 5;
#X obj 108 141 vradio 15 1 0 2 empty empty empty 0 -8 0 10 -262144
-1 -1 1;
#X text 123 139 LP;
#X text 125 158 VC;
#X obj 364 333 sel 0 1;
#X msg 351 370 1;
#X msg 413 365 0;
#X msg 353 408 0;
#X obj 474 465 *~;
#X obj 636 463 *~;
#X msg 406 403 1;
#X obj 587 104 cnv 15 100 60 empty empty empty 20 12 0 14 -233017 -66577
0;
#X text 106 114 FilterType;
#X text 144 159 Res;
#X obj 517 262 inlet~;
#X obj 549 515 outlet~;
#X connect 0 0 13 0;
#X connect 2 0 3 0;
#X connect 3 0 0 1;
#X connect 3 0 4 1;
#X connect 4 0 14 0;
#X connect 5 0 4 2;
#X connect 6 0 9 0;
#X connect 9 0 10 0;
#X connect 9 0 11 0;
#X connect 9 1 12 0;
#X connect 9 1 15 0;
#X connect 10 0 13 1;
#X connect 11 0 14 1;
#X connect 12 0 13 1;
#X connect 13 0 20 0;
#X connect 14 0 20 0;
#X connect 15 0 14 1;
#X connect 19 0 0 0;
#X connect 19 0 4 0;
#X coords 0 -1 1 1 250 250 1 100 100;
