#N canvas 386 50 881 467 10;
#X obj 497 101 osc~;
#X obj 602 172 *~;
#X obj 599 102 phasor~;
#X obj 104 120 vradio 15 1 0 3 empty empty empty 0 -8 0 10 -262144
-1 -1 0;
#X obj 701 108 phasor~;
#X obj 699 134 expr~ $v1 > 0.5;
#X obj 702 170 *~;
#X obj 503 167 *~;
#X obj 340 56 select 0 1 2;
#X text 122 119 sin;
#X text 121 135 Saw;
#X text 121 150 Pulse;
#X msg 333 88 1;
#X msg 362 89 0;
#X msg 395 89 0;
#X msg 391 128 0;
#X msg 358 128 1;
#X msg 329 127 0;
#X msg 331 163 0;
#X msg 360 164 0;
#X msg 393 164 1;
#X obj 18 20 cnv 15 100 60 empty empty empty 20 12 0 14 -233017 -66577
0;
#X obj 493 135 expr~ ($v1+1)*0.5;
#X text 238 106;
#X obj 171 119 vsl 15 70 0 6 0 0 empty empty empty 0 -9 0 10 -262144
-1 -1 0 1;
#X text 167 100 rate;
#X obj 217 120 vsl 15 70 0 3000 0 0 empty empty empty 0 -9 0 10 -262144
-1 -1 0 1;
#X text 206 103 range;
#X obj 581 245 *~;
#X obj 543 308 snapshot~;
#X obj 510 277 metro 50;
#X obj 250 140 tgl 15 0 empty empty empty 17 7 0 10 -262144 -1 -1 0
1;
#X floatatom 561 334 10 0 0 0 - - -, f 10;
#X obj 529 432 +;
#X obj 452 312 sel 0;
#X msg 466 345 0;
#X obj 591 407 bng 15 250 50 0 empty empty empty 17 7 0 10 -262144
-1 -1;
#X obj 681 26 inlet;
#X text 231 120 ON/OFF;
#X obj 530 465 outlet;
#X connect 0 0 22 0;
#X connect 1 0 28 0;
#X connect 2 0 1 0;
#X connect 3 0 8 0;
#X connect 4 0 5 0;
#X connect 5 0 6 0;
#X connect 6 0 28 0;
#X connect 7 0 28 0;
#X connect 8 0 12 0;
#X connect 8 0 13 0;
#X connect 8 0 14 0;
#X connect 8 1 17 0;
#X connect 8 1 16 0;
#X connect 8 1 15 0;
#X connect 8 2 18 0;
#X connect 8 2 19 0;
#X connect 8 2 20 0;
#X connect 12 0 7 1;
#X connect 13 0 1 1;
#X connect 14 0 6 1;
#X connect 15 0 6 1;
#X connect 16 0 1 1;
#X connect 17 0 7 1;
#X connect 18 0 7 1;
#X connect 19 0 1 1;
#X connect 20 0 6 1;
#X connect 22 0 7 0;
#X connect 24 0 0 0;
#X connect 24 0 2 0;
#X connect 24 0 4 0;
#X connect 26 0 28 1;
#X connect 28 0 29 0;
#X connect 29 0 32 0;
#X connect 29 0 33 0;
#X connect 30 0 29 0;
#X connect 31 0 30 0;
#X connect 31 0 34 0;
#X connect 33 0 39 0;
#X connect 34 0 35 0;
#X connect 35 0 33 0;
#X connect 36 0 33 0;
#X connect 37 0 36 0;
#X connect 37 0 33 1;
#X coords 0 -1 1 1 180 100 1 100 100;
