#N canvas 166 120 1024 527 10;
#X floatatom 457 -30 5 0 0 0 - - -, f 5;
#X obj 393 14 osc2;
#X obj 670 -23 ggee/envgen 200 140 1 0  ;
#X obj 469 -222 key;
#X obj 474 -77 mtof;
#X floatatom 525 -128 5 0 0 0 - - -, f 5;
#X obj 609 -142 bng 15 250 50 0 empty empty empty 17 7 0 10 -262144
-1 -1;
#X floatatom 551 -187 5 0 0 0 - - -, f 5;
#X msg 678 -102 duration \$1;
#X floatatom 704 -139 5 0 0 0 - - -, f 5;
#X obj 682 215 vline~;
#X obj 198 228 filterbank;
#X obj 655 490 *~;
#X obj 659 683 dac~;
#X obj 159 14 osc1;
#X obj 729 -196 loadbang;
#X msg 741 -167 3000;
#X floatatom 361 -121 5 0 0 0 - - -, f 5;
#X obj 450 -167 keyboardhelp;
#X obj 472 -116 +;
#X obj 650 578 freeverb~;
#X obj 414 521 hsl 128 15 0 1 0 0 empty empty empty -2 -8 0 10 -262144
-1 -1 0 1;
#X msg 441 561 wet \$1;
#X obj 513 557 expr 1 - $f1;
#X msg 520 590 dry \$1;
#X msg 971 608 roomsize \$1;
#X floatatom 967 559 5 0 1 0 - - -, f 5;
#X msg 356 632 freeze 0;
#X msg 429 639 freeze 1;
#X obj 561 314 dac~;
#X connect 0 0 1 0;
#X connect 0 0 14 0;
#X connect 1 0 11 0;
#X connect 2 0 10 0;
#X connect 3 0 7 0;
#X connect 3 0 17 0;
#X connect 3 0 18 0;
#X connect 4 0 0 0;
#X connect 5 0 19 1;
#X connect 6 0 2 0;
#X connect 8 0 2 0;
#X connect 9 0 8 0;
#X connect 10 0 12 1;
#X connect 11 0 12 0;
#X connect 12 0 20 0;
#X connect 12 0 20 1;
#X connect 14 0 11 0;
#X connect 15 0 16 0;
#X connect 16 0 9 0;
#X connect 18 0 6 0;
#X connect 18 0 19 0;
#X connect 18 1 5 0;
#X connect 19 0 4 0;
#X connect 20 0 13 0;
#X connect 20 1 13 1;
#X connect 21 0 22 0;
#X connect 21 0 23 0;
#X connect 22 0 20 0;
#X connect 23 0 24 0;
#X connect 24 0 20 0;
#X connect 26 0 25 0;
#X connect 27 0 20 0;
#X connect 28 0 20 0;
