#N canvas 122 74 590 473 10;
#X obj 300 181 phasor~;
#X obj 413 180 phasor~;
#X obj 316 118 inlet f;
#X obj 398 125 inlet ph;
#X obj 114 142 vradio 15 1 0 3 empty empty Osciladores 0 -8 0 10 -262144
-1 -1 0;
#X obj 309 236 *~;
#X obj 20 238 sel 0 1 2;
#X obj 22 279 bng 15 250 50 0 empty empty empty 17 7 0 10 -262144 -1
-1;
#X msg 72 309 0;
#X msg 15 309 1;
#X msg 44 311 0;
#X obj 248 218 *~;
#X obj 432 273 *~;
#X obj 23 343 bng 15 250 50 0 empty empty empty 17 7 0 10 -262144 -1
-1;
#X msg 73 373 0;
#X msg 16 373 0;
#X msg 45 375 1;
#X obj 26 400 bng 15 250 50 0 empty empty empty 17 7 0 10 -262144 -1
-1;
#X msg 19 430 0;
#X msg 48 432 0;
#X msg 76 430 1;
#X obj 313 402 outlet~;
#X obj 250 181 tri~;
#X text 136 141 Tri;
#X obj 317 206 *~;
#X text 135 158 experiment;
#X obj 430 216 *~ 2;
#X obj 464 239 -~ 2;
#X text 133 174 WidePhasor;
#X obj 200 135 vsl 15 50 0 1 0 0 empty empty empty 0 -9 0 10 -4032
-1 -1 0 1;
#X text 188 112 Nivel;
#X obj 320 369 *~;
#X obj 437 327 metro 100;
#X obj 213 233 tgl 15 0 empty empty empty 17 7 0 10 -262144 -1 -1 0
1;
#X text 206 206 Graph;
#N canvas 0 22 450 278 (subpatch) 0;
#X array Osc2 100 float 3;
#A 0 0 0 0 0 0 0 0 0 0 0 0 0 0 0 0 0 0 0 0 0 0 0 0 0 0 0 0 0 0 0 0
0 0 0 0 0 0 0 0 0 0 0 0 0 0 0 0 0 0 0 0 0 0 0 0 0 0 0 0 0 0 0 0 0 0
0 0 0 0 0 0 0 0 0 0 0 0 0 0 0 0 0 0 0 0 0 0 0 0 0 0 0 0 0 0 0 0 0 0
0;
#X coords 0 1 99 -1 100 80 1 0 0;
#X restore 106 217 graph;
#X obj 422 407 tabwrite~ Osc2;
#X connect 0 0 24 1;
#X connect 1 0 26 0;
#X connect 2 0 0 0;
#X connect 2 0 1 0;
#X connect 2 0 22 0;
#X connect 3 0 0 1;
#X connect 3 0 1 0;
#X connect 3 0 22 1;
#X connect 4 0 6 0;
#X connect 5 0 31 0;
#X connect 6 0 7 0;
#X connect 6 1 13 0;
#X connect 6 2 17 0;
#X connect 7 0 9 0;
#X connect 7 0 10 0;
#X connect 7 0 8 0;
#X connect 8 0 12 1;
#X connect 9 0 11 1;
#X connect 10 0 5 1;
#X connect 11 0 31 0;
#X connect 12 0 31 0;
#X connect 13 0 15 0;
#X connect 13 0 16 0;
#X connect 13 0 14 0;
#X connect 14 0 12 1;
#X connect 15 0 11 1;
#X connect 16 0 5 1;
#X connect 17 0 18 0;
#X connect 17 0 19 0;
#X connect 17 0 20 0;
#X connect 18 0 11 1;
#X connect 19 0 5 1;
#X connect 20 0 12 1;
#X connect 22 0 11 0;
#X connect 22 0 24 0;
#X connect 24 0 5 0;
#X connect 26 0 27 0;
#X connect 27 0 12 0;
#X connect 29 0 31 1;
#X connect 31 0 21 0;
#X connect 31 0 36 0;
#X connect 32 0 36 0;
#X connect 33 0 32 0;
#X coords 0 -1 1 1 140 200 1 100 100;
