#N canvas 19 100 1024 687 12;
#X floatatom 211 -21 5 0 0 0 - - -, f 5;
#X obj 299 281 *~ 0.4;
#X obj 415 127 * 3;
#X obj 201 127 * 2;
#X obj 584 118 * 4;
#X obj 740 128 * 5;
#X obj 916 116 * 6;
#X obj 940 139 * 7;
#N canvas 445 117 450 300 osc 0;
#X obj 111 66 osc~;
#X obj 112 131 *~ 0.4;
#X floatatom 199 37 5 0 0 0 - - -, f 5;
#X obj 199 92 line;
#X obj 108 -51 inlet;
#X obj 203 -54 inlet;
#X obj 111 172 outlet~;
#X msg 199 63 \$1 3000;
#X connect 0 0 1 0;
#X connect 1 0 6 0;
#X connect 2 0 7 0;
#X connect 3 0 1 1;
#X connect 4 0 0 0;
#X connect 5 0 2 0;
#X connect 7 0 3 0;
#X restore 74 160 pd osc;
#N canvas 445 117 450 300 osc 0;
#X obj 111 66 osc~;
#X obj 112 131 *~ 0.4;
#X floatatom 199 37 5 0 0 0 - - -, f 5;
#X obj 199 92 line;
#X obj 108 -51 inlet;
#X obj 203 -54 inlet;
#X obj 111 172 outlet~;
#X msg 199 63 \$1 3000;
#X connect 0 0 1 0;
#X connect 1 0 6 0;
#X connect 2 0 7 0;
#X connect 3 0 1 1;
#X connect 4 0 0 0;
#X connect 5 0 2 0;
#X connect 7 0 3 0;
#X restore 411 161 pd osc;
#N canvas 445 117 450 300 osc 0;
#X obj 112 131 *~ 0.4;
#X floatatom 199 37 5 0 0 0 - - -, f 5;
#X obj 199 92 line;
#X obj 108 -51 inlet;
#X obj 203 -54 inlet;
#X obj 111 172 outlet~;
#X obj 111 66 osc~;
#X msg 199 63 \$1 3000;
#X connect 0 0 5 0;
#X connect 1 0 7 0;
#X connect 2 0 0 1;
#X connect 3 0 6 0;
#X connect 4 0 1 0;
#X connect 6 0 0 0;
#X connect 7 0 2 0;
#X restore 199 168 pd osc;
#N canvas 445 117 450 300 osc 0;
#X obj 111 66 osc~;
#X obj 112 131 *~ 0.4;
#X floatatom 199 37 5 0 0 0 - - -, f 5;
#X obj 199 92 line;
#X obj 108 -51 inlet;
#X obj 203 -54 inlet;
#X obj 111 172 outlet~;
#X msg 199 63 \$1 3000;
#X connect 0 0 1 0;
#X connect 1 0 6 0;
#X connect 2 0 7 0;
#X connect 3 0 1 1;
#X connect 4 0 0 0;
#X connect 5 0 2 0;
#X connect 7 0 3 0;
#X restore 580 152 pd osc;
#N canvas 445 117 450 300 osc 0;
#X obj 111 66 osc~;
#X obj 112 131 *~ 0.4;
#X floatatom 199 37 5 0 0 0 - - -, f 5;
#X obj 199 92 line;
#X obj 108 -51 inlet;
#X obj 203 -54 inlet;
#X obj 111 172 outlet~;
#X msg 199 63 \$1 3000;
#X connect 0 0 1 0;
#X connect 1 0 6 0;
#X connect 2 0 7 0;
#X connect 3 0 1 1;
#X connect 4 0 0 0;
#X connect 5 0 2 0;
#X connect 7 0 3 0;
#X restore 734 159 pd osc;
#N canvas 445 117 450 300 osc 0;
#X obj 111 66 osc~;
#X obj 112 131 *~ 0.4;
#X floatatom 199 37 5 0 0 0 - - -, f 5;
#X obj 199 92 line;
#X obj 108 -51 inlet;
#X obj 203 -54 inlet;
#X obj 111 172 outlet~;
#X msg 199 63 \$1 3000;
#X connect 0 0 1 0;
#X connect 1 0 6 0;
#X connect 2 0 7 0;
#X connect 3 0 1 1;
#X connect 4 0 0 0;
#X connect 5 0 2 0;
#X connect 7 0 3 0;
#X restore 813 162 pd osc;
#N canvas 445 117 450 300 osc 0;
#X obj 111 66 osc~;
#X obj 112 131 *~ 0.4;
#X floatatom 199 37 5 0 0 0 - - -, f 5;
#X obj 199 92 line;
#X obj 108 -51 inlet;
#X obj 203 -54 inlet;
#X obj 111 172 outlet~;
#X msg 199 63 \$1 3000;
#X connect 0 0 1 0;
#X connect 1 0 6 0;
#X connect 2 0 7 0;
#X connect 3 0 1 1;
#X connect 4 0 0 0;
#X connect 5 0 2 0;
#X connect 7 0 3 0;
#X restore 944 167 pd osc;
#X obj 175 44 random 100;
#X obj 175 72 / 100;
#X floatatom 175 101 5 0 0 0 - - -, f 5;
#X obj 741 -5 bng 15 250 50 0 empty empty empty 17 7 0 10 -262144 -1
-1;
#X obj 253 74 random 100;
#X obj 253 102 / 100;
#X floatatom 253 131 5 0 0 0 - - -, f 5;
#X obj 463 65 random 100;
#X obj 463 93 / 100;
#X floatatom 463 122 5 0 0 0 - - -, f 5;
#X obj 641 58 random 100;
#X obj 641 86 / 100;
#X floatatom 641 115 5 0 0 0 - - -, f 5;
#X obj 790 63 random 100;
#X obj 790 91 / 100;
#X floatatom 790 120 5 0 0 0 - - -, f 5;
#X obj 869 69 random 100;
#X obj 869 97 / 100;
#X floatatom 869 126 5 0 0 0 - - -, f 5;
#X obj 980 67 random 100;
#X obj 980 95 / 100;
#X floatatom 980 124 5 0 0 0 - - -, f 5;
#X obj 210 -62 inlet;
#X obj 737 -52 inlet;
#X obj 298 325 outlet~;
#X connect 0 0 8 0;
#X connect 0 0 2 0;
#X connect 0 0 3 0;
#X connect 0 0 4 0;
#X connect 0 0 5 0;
#X connect 0 0 6 0;
#X connect 0 0 7 0;
#X connect 1 0 39 0;
#X connect 2 0 9 0;
#X connect 3 0 10 0;
#X connect 4 0 11 0;
#X connect 5 0 12 0;
#X connect 6 0 13 0;
#X connect 7 0 14 0;
#X connect 8 0 1 0;
#X connect 9 0 1 0;
#X connect 10 0 1 0;
#X connect 11 0 1 0;
#X connect 12 0 1 0;
#X connect 13 0 1 0;
#X connect 14 0 1 0;
#X connect 15 0 16 0;
#X connect 16 0 17 0;
#X connect 17 0 8 1;
#X connect 18 0 15 0;
#X connect 18 0 19 0;
#X connect 18 0 22 0;
#X connect 18 0 25 0;
#X connect 18 0 28 0;
#X connect 18 0 31 0;
#X connect 18 0 34 0;
#X connect 19 0 20 0;
#X connect 20 0 21 0;
#X connect 21 0 10 1;
#X connect 22 0 23 0;
#X connect 23 0 24 0;
#X connect 24 0 9 1;
#X connect 25 0 26 0;
#X connect 26 0 27 0;
#X connect 27 0 11 1;
#X connect 28 0 29 0;
#X connect 29 0 30 0;
#X connect 30 0 12 1;
#X connect 31 0 32 0;
#X connect 32 0 33 0;
#X connect 33 0 13 1;
#X connect 34 0 35 0;
#X connect 35 0 36 0;
#X connect 36 0 14 1;
#X connect 37 0 0 0;
#X connect 38 0 18 0;
