#N canvas 86 99 947 541 16;
#X obj 633 388 ggee/moog~;
#X obj 261 136 vsl 15 70 20 20000 1 0 empty empty empty 0 -9 0 10 -261682
-1 -1 3300 1;
#X obj 829 280 +;
#X text 246 105 freqCentral;
#X obj 430 137 vsl 15 70 0 4 0 0 empty empty empty 0 -9 0 10 -262144
-1 -1 5400 1;
#X text 422 100 Res;
#X obj 276 274 lfo2;
#X obj 994 416 vcf~;
#X obj 128 208 vradio 18 1 0 2 empty empty empty 0 -8 0 10 -204786
-1 -1 0;
#X obj 646 490 *~;
#X obj 992 483 *~;
#X text 149 204 Moog;
#X text 150 224 VCF;
#X obj 540 345 sel 0 1;
#X msg 546 394 1;
#X msg 592 395 0;
#X msg 540 439 0;
#X msg 594 433 1;
#X obj 726 -63 cnv 15 100 60 empty empty empty 20 12 0 14 -233017 -66577
0;
#X text 121 177 Type;
#X obj 813 142 inlet~;
#X obj 844 541 outlet~;
#X connect 0 0 9 0;
#X connect 1 0 2 1;
#X connect 2 0 0 1;
#X connect 2 0 7 1;
#X connect 4 0 0 2;
#X connect 4 0 7 2;
#X connect 6 0 2 0;
#X connect 7 0 10 0;
#X connect 8 0 13 0;
#X connect 9 0 21 0;
#X connect 10 0 21 0;
#X connect 13 0 14 0;
#X connect 13 0 15 0;
#X connect 13 1 16 0;
#X connect 13 1 17 0;
#X connect 14 0 9 1;
#X connect 15 0 10 1;
#X connect 16 0 9 1;
#X connect 17 0 10 1;
#X connect 20 0 0 0;
#X connect 20 0 7 0;
#X coords 0 -1 1 1 400 400 1 100 100;
