#N canvas 243 175 718 345 10;
#X msg 88 100 24;
#X msg 111 123 25;
#X msg 127 98 26;
#X msg 155 119 27;
#X msg 181 99 28;
#X msg 201 123 29;
#X msg 217 102 30;
#X msg 242 125 31;
#X msg 266 102 32;
#X msg 290 128 33;
#X msg 305 103 34;
#X msg 331 130 35;
#X msg 344 103 36;
#X obj 90 28 inlet;
#X obj 120 207 outlet;
#X obj 97 52 select 97 119 115 101 100 102 116 103 121 104 117 106
107;
#X obj 482 190 + 12;
#X obj 542 188 - 12;
#X obj 482 135 f 0;
#X obj 554 138 f 0;
#X obj 482 105 select 120 122;
#X obj 527 239 outlet;
#X connect 0 0 14 0;
#X connect 1 0 14 0;
#X connect 2 0 14 0;
#X connect 3 0 14 0;
#X connect 4 0 14 0;
#X connect 5 0 14 0;
#X connect 6 0 14 0;
#X connect 7 0 14 0;
#X connect 8 0 14 0;
#X connect 9 0 14 0;
#X connect 10 0 14 0;
#X connect 11 0 14 0;
#X connect 12 0 14 0;
#X connect 13 0 15 0;
#X connect 15 0 0 0;
#X connect 15 1 1 0;
#X connect 15 2 2 0;
#X connect 15 3 3 0;
#X connect 15 4 4 0;
#X connect 15 5 5 0;
#X connect 15 6 6 0;
#X connect 15 7 7 0;
#X connect 15 8 8 0;
#X connect 15 9 9 0;
#X connect 15 10 10 0;
#X connect 15 11 11 0;
#X connect 15 12 12 0;
#X connect 15 13 20 0;
#X connect 16 0 18 1;
#X connect 16 0 19 1;
#X connect 16 0 21 0;
#X connect 17 0 18 1;
#X connect 17 0 19 1;
#X connect 17 0 21 0;
#X connect 18 0 16 0;
#X connect 19 0 17 0;
#X connect 20 0 18 0;
#X connect 20 1 19 0;
