#N canvas 259 316 892 588 12;
#X obj 569 107 osc~;
#X obj 111 121 vradio 18 1 0 3 empty empty empty 0 -8 0 10 -262144
-1 -1 0;
#X obj 570 293 *~;
#X obj 372 83 select 0 1 2;
#X text 136 140 Saw;
#X msg 361 128 1;
#X msg 403 130 0;
#X msg 451 130 0;
#X msg 445 186 0;
#X msg 397 186 1;
#X msg 356 185 0;
#X msg 359 236 0;
#X msg 401 238 0;
#X msg 448 238 1;
#X obj 26 29 cnv 15 100 60 empty empty empty 20 12 0 14 -233017 -66577
0;
#X text 137 117 Sin;
#X obj 115 227 vsl 15 60 0 18 0 0 empty empty empty 0 -9 0 10 -159808
-1 -1 100 1;
#X text 109 196 Rate;
#X obj 563 142 expr~ ($v1 + 1) * 0.5;
#X obj 628 417 *~;
#X obj 616 462 snapshot~;
#X obj 522 407 metro 50;
#X obj 235 142 tgl 15 0 empty empty empty 17 7 0 10 -262144 -1 -1 1
1;
#X obj 231 213 vsl 15 70 0 8000 0 0 empty empty empty 0 -9 0 10 -262144
-1 -1 6900 1;
#X text 133 160 Sqrt;
#X obj 690 298 *~;
#X obj 686 197 phasor~;
#X obj 854 209 phasor~;
#X obj 852 246 expr~ $v1 > 0.5;
#X obj 817 284 *~;
#X text 223 187 Depth;
#X obj 620 516 outlet;
#X text 222 122 on/off;
#X connect 0 0 18 0;
#X connect 1 0 3 0;
#X connect 2 0 19 0;
#X connect 3 0 5 0;
#X connect 3 0 6 0;
#X connect 3 0 7 0;
#X connect 3 1 10 0;
#X connect 3 1 9 0;
#X connect 3 1 8 0;
#X connect 3 2 11 0;
#X connect 3 2 12 0;
#X connect 3 2 13 0;
#X connect 5 0 2 1;
#X connect 6 0 25 1;
#X connect 7 0 29 1;
#X connect 8 0 29 1;
#X connect 9 0 25 1;
#X connect 10 0 2 1;
#X connect 11 0 2 1;
#X connect 12 0 25 1;
#X connect 13 0 29 1;
#X connect 16 0 0 0;
#X connect 16 0 26 0;
#X connect 16 0 27 0;
#X connect 18 0 2 0;
#X connect 19 0 20 0;
#X connect 20 0 31 0;
#X connect 21 0 20 0;
#X connect 22 0 21 0;
#X connect 23 0 19 1;
#X connect 25 0 19 0;
#X connect 26 0 25 0;
#X connect 27 0 28 0;
#X connect 28 0 29 0;
#X connect 29 0 19 0;
#X coords 0 -1 1 1 200 200 1 100 100;
