#N canvas 43 53 1280 644 16;
#X obj 222 155 print, f 7;
#X msg 53 98 Hello world!;
#X obj 55 70 bng 15 250 50 0 empty empty empty 17 7 0 10 -262144 -1
-1;
#X symbolatom 223 115 10 0 0 0 - - -, f 10;
#X obj 224 82 symbol;
#X obj 52 133 print;
#X obj 52 133 print;
#X obj 222 155 print, f 7;
#X msg 223 47 symbol maigosh;
#X obj 575 168 osc~ 440;
#X obj 576 272 dac~;
#X obj 577 218 *~ 0;
#X floatatom 571 118 5 0 0 0 - - -, f 5;
#X msg 684 166 0;
#X msg 734 168 1;
#X obj 673 123 line~;
#X msg 678 73 1 100;
#X msg 751 74 0 500;
#X text 53 30 Intro;
#X text 592 38 Basic Example;
#X text 880 47 Math & Order;
#X msg 567 76 600;
#X obj 893 134 +;
#X floatatom 889 85 5 0 0 0 - - -, f 5;
#X floatatom 970 84 5 0 0 0 - - -, f 5;
#X floatatom 895 182 5 0 0 0 - - -, f 5;
#X obj 893 216 -;
#X obj 947 216 *;
#X obj 989 215 /;
#X obj 228 245 metro;
#X obj 40 189;
#X msg 40 268;
#X floatatom 42 307 5 0 0 0 - - -, f 5;
#X symbolatom 40 229 10 0 0 0 - - -, f 10;
#X text 227 195 comment;
#X obj 894 260 pow;
#X obj 850 324 bng 15 250 50 0 empty empty empty 17 7 0 10 -262144
-1 -1;
#X floatatom 886 469 5 0 0 0 - - -, f 5;
#X floatatom 960 469 5 0 0 0 - - -, f 5;
#X obj 886 318 trigger bang bang;
#X msg 887 396 3;
#X msg 955 394 5;
#X obj 887 432 * 3;
#X obj 957 435 * 4;
#X obj 889 510 +;
#X floatatom 888 553 5 0 0 0 - - -, f 5;
#X obj 1109 321 bng 15 250 50 0 empty empty empty 17 7 0 10 -262144
-1 -1;
#X obj 1087 433 print left;
#X obj 1202 432 print right;
#X obj 1097 353 trigger bang bang;
#X connect 1 0 5 0;
#X connect 2 0 1 0;
#X connect 3 0 0 0;
#X connect 4 0 3 0;
#X connect 8 0 4 0;
#X connect 9 0 11 0;
#X connect 11 0 10 0;
#X connect 11 0 10 1;
#X connect 12 0 9 0;
#X connect 13 0 11 1;
#X connect 14 0 11 1;
#X connect 16 0 15 0;
#X connect 17 0 15 0;
#X connect 21 0 9 0;
#X connect 22 0 25 0;
#X connect 23 0 22 0;
#X connect 24 0 22 1;
#X connect 37 0 44 0;
#X connect 38 0 44 1;
#X connect 39 0 40 0;
#X connect 39 1 41 0;
#X connect 40 0 42 0;
#X connect 41 0 43 0;
#X connect 42 0 37 0;
#X connect 43 0 38 0;
#X connect 44 0 45 0;
#X connect 46 0 49 0;
#X connect 49 0 47 0;
#X connect 49 1 48 0;
